<svg width="30" height="30" viewBox="0 0 30 30" fill="none" xmlns="http://www.w3.org/2000/svg">
<path d="M9.375 8.4375C9.375 8.4375 9.375 2.8125 15 2.8125C20.625 2.8125 20.625 8.4375 20.625 8.4375M4.6875 8.4375V27.1875H25.3125V8.4375H4.6875Z" stroke="black" stroke-width="1.875" stroke-linecap="round" stroke-linejoin="round"/>
<circle cx="15.5" cy="17.5" r="6" fill="#E80A1F" stroke="white"/>
<path d="M17.4766 20H13.6523V19.3477L15.5469 17.2812C15.8203 16.9766 16.0143 16.7227 16.1289 16.5195C16.2461 16.3138 16.3047 16.1081 16.3047 15.9023C16.3047 15.6315 16.2279 15.4128 16.0742 15.2461C15.9232 15.0794 15.7188 14.9961 15.4609 14.9961C15.1536 14.9961 14.9154 15.0898 14.7461 15.2773C14.5768 15.4648 14.4922 15.7214 14.4922 16.0469H13.543C13.543 15.7005 13.6211 15.3893 13.7773 15.1133C13.9362 14.8346 14.1615 14.6185 14.4531 14.4648C14.7474 14.3112 15.0859 14.2344 15.4688 14.2344C16.0208 14.2344 16.4557 14.3737 16.7734 14.6523C17.0938 14.9284 17.2539 15.3112 17.2539 15.8008C17.2539 16.0846 17.1732 16.3828 17.0117 16.6953C16.8529 17.0052 16.5911 17.3581 16.2266 17.7539L14.8359 19.2422H17.4766V20Z" fill="white"/>
</svg>
