<svg width="124" height="16" viewBox="0 0 124 16" fill="none" xmlns="http://www.w3.org/2000/svg">
<path d="M84.828 5.868C84.516 6.276 84.184 6.72 83.832 7.2C83.48 7.68 83.184 8.172 82.944 8.676H84.828V5.868ZM86.58 3.684V8.676H87.468V10.14H86.58V12H84.828V10.14H81.24V8.832C81.416 8.48 81.636 8.084 81.9 7.644C82.164 7.196 82.456 6.74 82.776 6.276C83.104 5.804 83.448 5.344 83.808 4.896C84.168 4.448 84.528 4.044 84.888 3.684H86.58ZM90.4123 11.052C90.4123 11.412 90.2963 11.688 90.0643 11.88C89.8403 12.064 89.5843 12.156 89.2963 12.156C89.0083 12.156 88.7483 12.064 88.5163 11.88C88.2923 11.688 88.1803 11.412 88.1803 11.052C88.1803 10.692 88.2923 10.42 88.5163 10.236C88.7483 10.044 89.0083 9.948 89.2963 9.948C89.5843 9.948 89.8403 10.044 90.0643 10.236C90.2963 10.42 90.4123 10.692 90.4123 11.052ZM94.2414 7.536C94.4254 7.536 94.6174 7.52 94.8174 7.488C95.0174 7.448 95.1654 7.396 95.2614 7.332V7.224C95.2614 7.192 95.2614 7.16 95.2614 7.128C95.2694 7.096 95.2734 7.068 95.2734 7.044C95.2654 6.756 95.2414 6.488 95.2014 6.24C95.1614 5.984 95.0934 5.764 94.9974 5.58C94.9014 5.388 94.7694 5.24 94.6014 5.136C94.4414 5.024 94.2414 4.968 94.0014 4.968C93.8094 4.968 93.6414 5.008 93.4974 5.088C93.3534 5.168 93.2374 5.272 93.1494 5.4C93.0614 5.528 92.9934 5.668 92.9454 5.82C92.9054 5.972 92.8854 6.12 92.8854 6.264C92.8854 6.696 92.9894 7.016 93.1974 7.224C93.4134 7.432 93.7614 7.536 94.2414 7.536ZM95.1174 8.7C94.9494 8.78 94.7614 8.84 94.5534 8.88C94.3534 8.912 94.1814 8.928 94.0374 8.928C93.5174 8.928 93.0734 8.868 92.7054 8.748C92.3374 8.62 92.0334 8.444 91.7934 8.22C91.5614 7.988 91.3894 7.712 91.2774 7.392C91.1654 7.072 91.1094 6.72 91.1094 6.336C91.1094 6.016 91.1614 5.688 91.2654 5.352C91.3774 5.016 91.5494 4.712 91.7814 4.44C92.0134 4.16 92.3054 3.932 92.6574 3.756C93.0174 3.572 93.4494 3.48 93.9534 3.48C94.9854 3.48 95.7614 3.8 96.2814 4.44C96.8094 5.072 97.0734 5.984 97.0734 7.176C97.0734 7.96 96.9694 8.652 96.7614 9.252C96.5614 9.852 96.2454 10.356 95.8134 10.764C95.3894 11.172 94.8454 11.484 94.1814 11.7C93.5174 11.908 92.7294 12.016 91.8174 12.024C91.8094 11.768 91.7974 11.52 91.7814 11.28C91.7654 11.04 91.7494 10.792 91.7334 10.536C92.1894 10.528 92.6014 10.496 92.9694 10.44C93.3374 10.376 93.6614 10.276 93.9414 10.14C94.2214 9.996 94.4574 9.808 94.6494 9.576C94.8494 9.344 95.0054 9.052 95.1174 8.7ZM103.081 8.412C103.081 9.356 103.229 10.256 103.525 11.112C103.821 11.968 104.209 12.736 104.689 13.416L103.441 14.22C102.761 13.428 102.237 12.54 101.869 11.556C101.501 10.572 101.317 9.524 101.317 8.412C101.317 7.3 101.501 6.252 101.869 5.268C102.237 4.284 102.761 3.396 103.441 2.604L104.689 3.408C104.209 4.088 103.821 4.856 103.525 5.712C103.229 6.568 103.081 7.468 103.081 8.412ZM105.594 5.412C105.826 5.316 106.066 5.208 106.314 5.088C106.57 4.96 106.818 4.824 107.058 4.68C107.298 4.528 107.526 4.372 107.742 4.212C107.966 4.044 108.166 3.868 108.342 3.684H109.59V12H107.802V6.012C107.562 6.172 107.294 6.32 106.998 6.456C106.702 6.584 106.414 6.696 106.134 6.792L105.594 5.412ZM115.894 9.552C115.894 9.32 115.842 9.116 115.738 8.94C115.634 8.756 115.454 8.604 115.198 8.484C114.942 8.364 114.598 8.272 114.166 8.208C113.734 8.144 113.19 8.112 112.534 8.112C112.622 7.368 112.694 6.612 112.75 5.844C112.806 5.076 112.85 4.356 112.882 3.684H117.382V5.184H114.382C114.366 5.472 114.346 5.752 114.322 6.024C114.306 6.288 114.286 6.52 114.262 6.72C115.43 6.8 116.29 7.076 116.842 7.548C117.402 8.012 117.682 8.66 117.682 9.492C117.682 9.876 117.614 10.232 117.478 10.56C117.342 10.888 117.138 11.172 116.866 11.412C116.594 11.652 116.25 11.84 115.834 11.976C115.426 12.112 114.946 12.18 114.394 12.18C114.178 12.18 113.95 12.164 113.71 12.132C113.478 12.108 113.25 12.072 113.026 12.024C112.81 11.984 112.614 11.94 112.438 11.892C112.262 11.844 112.126 11.796 112.03 11.748L112.354 10.272C112.554 10.36 112.818 10.448 113.146 10.536C113.474 10.616 113.866 10.656 114.322 10.656C114.874 10.656 115.274 10.548 115.522 10.332C115.77 10.108 115.894 9.848 115.894 9.552ZM120.063 8.412C120.063 7.468 119.915 6.568 119.619 5.712C119.323 4.856 118.935 4.088 118.455 3.408L119.703 2.604C120.383 3.396 120.907 4.284 121.275 5.268C121.643 6.252 121.827 7.3 121.827 8.412C121.827 9.524 121.643 10.572 121.275 11.556C120.907 12.54 120.383 13.428 119.703 14.22L118.455 13.416C118.935 12.736 119.323 11.968 119.619 11.112C119.915 10.256 120.063 9.356 120.063 8.412Z" fill="black"/>
<g clip-path="url(#clip0_627:2)">
<path d="M2.44738 13.664C2.39938 13.664 2.35138 13.64 2.30338 13.616C2.23138 13.568 2.18338 13.448 2.20738 13.352L3.26338 9.416L0.095379 6.848C-0.000621026 6.8 -0.024621 6.68001 -0.00062103 6.584C0.023379 6.48801 0.119379 6.416 0.215379 6.416L4.29538 6.2L5.75938 2.38401C5.80738 2.31201 5.90338 2.24001 5.99938 2.24001C6.09538 2.24001 6.19138 2.31201 6.21538 2.38401L7.67938 6.2L11.7594 6.416C11.8554 6.416 11.9514 6.48801 11.9754 6.584C11.9994 6.68001 11.9754 6.776 11.9034 6.848L8.73538 9.416L9.79138 13.352C9.81538 13.448 9.79138 13.544 9.69538 13.616C9.62338 13.664 9.50338 13.688 9.43138 13.616L5.99938 11.408L2.56738 13.616C2.51938 13.664 2.49538 13.664 2.44738 13.664Z" fill="#E80A1F"/>
</g>
<g clip-path="url(#clip1_627:2)">
<path d="M18.4474 13.664C18.3994 13.664 18.3514 13.64 18.3034 13.616C18.2314 13.568 18.1834 13.448 18.2074 13.352L19.2634 9.416L16.0954 6.848C15.9994 6.8 15.9754 6.68001 15.9994 6.584C16.0234 6.48801 16.1194 6.416 16.2154 6.416L20.2954 6.2L21.7594 2.38401C21.8074 2.31201 21.9034 2.24001 21.9994 2.24001C22.0954 2.24001 22.1914 2.31201 22.2154 2.38401L23.6794 6.2L27.7594 6.416C27.8554 6.416 27.9514 6.48801 27.9754 6.584C27.9994 6.68001 27.9754 6.776 27.9034 6.848L24.7354 9.416L25.7914 13.352C25.8154 13.448 25.7914 13.544 25.6954 13.616C25.6234 13.664 25.5034 13.688 25.4314 13.616L21.9994 11.408L18.5674 13.616C18.5194 13.664 18.4954 13.664 18.4474 13.664Z" fill="#E80A1F"/>
</g>
<g clip-path="url(#clip2_627:2)">
<path d="M34.4474 13.664C34.3994 13.664 34.3514 13.64 34.3034 13.616C34.2314 13.568 34.1834 13.448 34.2074 13.352L35.2634 9.416L32.0954 6.848C31.9994 6.8 31.9754 6.68001 31.9994 6.584C32.0234 6.48801 32.1194 6.416 32.2154 6.416L36.2954 6.2L37.7594 2.38401C37.8074 2.31201 37.9034 2.24001 37.9994 2.24001C38.0954 2.24001 38.1914 2.31201 38.2154 2.38401L39.6794 6.2L43.7594 6.416C43.8554 6.416 43.9514 6.48801 43.9754 6.584C43.9994 6.68001 43.9754 6.776 43.9034 6.848L40.7354 9.416L41.7914 13.352C41.8154 13.448 41.7914 13.544 41.6954 13.616C41.6234 13.664 41.5034 13.688 41.4314 13.616L37.9994 11.408L34.5674 13.616C34.5194 13.664 34.4954 13.664 34.4474 13.664Z" fill="#E80A1F"/>
</g>
<g clip-path="url(#clip3_627:2)">
<path d="M50.4474 13.664C50.3994 13.664 50.3514 13.64 50.3034 13.616C50.2314 13.568 50.1834 13.448 50.2074 13.352L51.2634 9.416L48.0954 6.848C47.9994 6.8 47.9754 6.68001 47.9994 6.584C48.0234 6.48801 48.1194 6.416 48.2154 6.416L52.2954 6.2L53.7594 2.38401C53.8074 2.31201 53.9034 2.24001 53.9994 2.24001C54.0954 2.24001 54.1914 2.31201 54.2154 2.38401L55.6794 6.2L59.7594 6.416C59.8554 6.416 59.9514 6.48801 59.9754 6.584C59.9994 6.68001 59.9754 6.776 59.9034 6.848L56.7354 9.416L57.7914 13.352C57.8154 13.448 57.7914 13.544 57.6954 13.616C57.6234 13.664 57.5034 13.688 57.4314 13.616L53.9994 11.408L50.5674 13.616C50.5194 13.664 50.4954 13.664 50.4474 13.664Z" fill="#E80A1F"/>
</g>
<g clip-path="url(#clip4_627:2)">
<path d="M66.4474 13.664C66.3994 13.664 66.3514 13.64 66.3034 13.616C66.2314 13.568 66.1834 13.448 66.2074 13.352L67.2634 9.416L64.0954 6.848C63.9994 6.8 63.9754 6.68001 63.9994 6.584C64.0234 6.48801 64.1194 6.416 64.2154 6.416L68.2954 6.2L69.7594 2.38401C69.8074 2.31201 69.9034 2.24001 69.9994 2.24001C70.0954 2.24001 70.1914 2.31201 70.2154 2.38401L71.6794 6.2L75.7594 6.416C75.8554 6.416 75.9514 6.48801 75.9754 6.584C75.9994 6.68001 75.9754 6.776 75.9034 6.848L72.7354 9.416L73.7914 13.352C73.8154 13.448 73.7914 13.544 73.6954 13.616C73.6234 13.664 73.5034 13.688 73.4314 13.616L69.9994 11.408L66.5674 13.616C66.5194 13.664 66.4954 13.664 66.4474 13.664Z" fill="#E80A1F"/>
</g>
<defs>
<clipPath id="clip0_627:2">
<rect width="12" height="12" fill="white" transform="translate(0 2)"/>
</clipPath>
<clipPath id="clip1_627:2">
<rect width="12" height="12" fill="white" transform="translate(16 2)"/>
</clipPath>
<clipPath id="clip2_627:2">
<rect width="12" height="12" fill="white" transform="translate(32 2)"/>
</clipPath>
<clipPath id="clip3_627:2">
<rect width="12" height="12" fill="white" transform="translate(48 2)"/>
</clipPath>
<clipPath id="clip4_627:2">
<rect width="12" height="12" fill="white" transform="translate(64 2)"/>
</clipPath>
</defs>
</svg>
