<svg width="34" height="26" viewBox="0 0 34 26" fill="none" xmlns="http://www.w3.org/2000/svg">
<g clip-path="url(#clip0_48:726)">
<path fill-rule="evenodd" clip-rule="evenodd" d="M33.0975 20.6358C33.0975 23.5061 30.8035 25.8336 27.9719 25.8336H0.14502V5.2879C0.14502 2.41682 2.43938 0.0893852 5.27099 0.0893852L33.0975 0.0893555V20.6358H33.0975Z" fill="white"/>
<path fill-rule="evenodd" clip-rule="evenodd" d="M24.0251 13.4129H24.0434H24.0787H24.1141H24.1494H24.1848H24.2201H24.2554H24.2908H24.3261H24.3614H24.3968H24.4321H24.4675H24.5028H24.5381H24.5735H24.6088H24.6441H24.6795H24.7148H24.7501H24.7855H24.8208H24.8562H24.8915H24.9268H24.9622H24.9975H25.0328H25.0682H25.1035H25.1388H25.1742H25.2095H25.2449H25.2802H25.3155H25.3509H25.3862H25.4215H25.4569H25.4922H25.5275H25.5629H25.5982H25.6335H25.6689H25.7042H25.7395H25.7749H25.8102H25.8455H25.8809H25.9162H25.9515H25.9869H26.0222H26.0576H26.0929H26.1282H26.1576L26.1636 13.413C26.1745 13.4133 26.1864 13.4138 26.1989 13.4145C26.2103 13.4151 26.2221 13.4159 26.2342 13.4168C26.2459 13.4177 26.2577 13.4187 26.2696 13.4198C26.2815 13.4209 26.2933 13.4221 26.3049 13.4234C26.3171 13.4248 26.329 13.4262 26.3403 13.4278C26.3529 13.4295 26.3648 13.4313 26.3756 13.4332C26.3834 13.4345 26.3905 13.4359 26.397 13.4372L26.4109 13.4405C26.4228 13.4433 26.4345 13.4463 26.4463 13.4496C26.4581 13.4529 26.4699 13.4564 26.4816 13.4602C26.4935 13.464 26.5052 13.4681 26.5169 13.4724C26.5288 13.4768 26.5406 13.4814 26.5523 13.4862C26.5642 13.4912 26.5759 13.4964 26.5876 13.5018C26.5995 13.5073 26.6113 13.513 26.6229 13.5191C26.6348 13.5252 26.6466 13.5316 26.6583 13.5382C26.6702 13.545 26.682 13.5522 26.6936 13.5595C26.7055 13.5671 26.7174 13.5748 26.729 13.5829C26.7409 13.5912 26.7527 13.5998 26.7643 13.6086C26.7763 13.6178 26.7881 13.6273 26.7996 13.637C26.8116 13.6472 26.8234 13.6577 26.835 13.6684C26.847 13.6797 26.8588 13.6912 26.8703 13.7031C26.8824 13.7156 26.8942 13.7285 26.9056 13.7417C26.9178 13.7558 26.9296 13.7702 26.941 13.785C26.9532 13.801 26.965 13.8173 26.9763 13.8342C26.9887 13.8526 27.0005 13.8715 27.0116 13.8909C27.0242 13.9127 27.036 13.9352 27.047 13.9583C27.06 13.9857 27.0718 14.014 27.0823 14.043C27.0965 14.082 27.1083 14.1224 27.1177 14.1641C27.1338 14.2365 27.1425 14.3127 27.1425 14.3922C27.1425 14.4721 27.1339 14.5487 27.1177 14.6212C27.1083 14.6631 27.0965 14.7036 27.0823 14.7427C27.0718 14.7718 27.06 14.8 27.047 14.8275C27.036 14.8506 27.0242 14.8732 27.0116 14.8951C27.0005 14.9145 26.9887 14.9334 26.9763 14.9518C26.965 14.9686 26.9532 14.985 26.941 15.001C26.9296 15.0158 26.9178 15.0302 26.9056 15.0442C26.8942 15.0575 26.8824 15.0704 26.8703 15.0829C26.8588 15.0947 26.847 15.1062 26.835 15.1175C26.8234 15.1282 26.8116 15.1386 26.7996 15.1487C26.7881 15.1585 26.7763 15.1679 26.7643 15.1771C26.7527 15.1859 26.7409 15.1944 26.729 15.2027C26.7174 15.2108 26.7055 15.2185 26.6936 15.226C26.682 15.2333 26.6702 15.2404 26.6583 15.2472C26.6466 15.2538 26.6349 15.2601 26.6229 15.2662C26.6113 15.2722 26.5995 15.2779 26.5876 15.2834C26.5759 15.2888 26.5642 15.2939 26.5523 15.2988C26.5406 15.3036 26.5288 15.3082 26.5169 15.3125C26.5052 15.3167 26.4935 15.3208 26.4816 15.3245C26.4699 15.3283 26.4581 15.3317 26.4463 15.335C26.4345 15.3382 26.4228 15.3412 26.4109 15.344L26.397 15.3472C26.3905 15.3486 26.3834 15.3501 26.3756 15.3515C26.3648 15.3534 26.3529 15.3553 26.3403 15.357C26.329 15.3586 26.3171 15.3601 26.3049 15.3614C26.2933 15.3627 26.2815 15.3639 26.2696 15.365C26.2577 15.3661 26.2459 15.3671 26.2342 15.3679C26.2221 15.3688 26.2103 15.3696 26.1989 15.3702C26.1864 15.3708 26.1745 15.3713 26.1636 15.3716L26.1446 15.3718H26.1282H26.0929H26.0576H26.0222H25.9869H25.9515H25.9162H25.8809H25.8455H25.8102H25.7749H25.7395H25.7042H25.6689H25.6335H25.5982H25.5629H25.5275H25.4922H25.4569H25.4215H25.3862H25.3509H25.3155H25.2802H25.2449H25.2095H25.1742H25.1388H25.1035H25.0682H25.0328H24.9975H24.9622H24.9268H24.8915H24.8562H24.8208H24.7855H24.7501H24.7148H24.6795H24.6441H24.6088H24.5735H24.5381H24.5028H24.4675H24.4321H24.3968H24.3614H24.3261H24.2908H24.2554H24.2201H24.1848H24.1494H24.1141H24.0787H24.0434H24.0251V13.4129ZM26.8704 11.1958C26.8846 11.2615 26.8923 11.3312 26.8923 11.4045C26.8923 11.4777 26.8846 11.5473 26.8704 11.613C26.8613 11.6552 26.8494 11.6958 26.8351 11.7347C26.8246 11.7631 26.8128 11.7906 26.7997 11.8171C26.7888 11.8394 26.777 11.861 26.7644 11.8819C26.7533 11.9003 26.7414 11.9183 26.7291 11.9357C26.7178 11.9515 26.706 11.9669 26.6937 11.9819C26.6823 11.9958 26.6706 12.0093 26.6584 12.0224C26.647 12.0347 26.6352 12.0466 26.6231 12.0581C26.6116 12.0691 26.5998 12.0798 26.5877 12.0901C26.5762 12.0999 26.5644 12.1095 26.5524 12.1187C26.5408 12.1276 26.5291 12.1362 26.5171 12.1445C26.5055 12.1525 26.4937 12.1603 26.4817 12.1677C26.4701 12.175 26.4583 12.182 26.4464 12.1886C26.4348 12.1952 26.423 12.2015 26.4111 12.2075C26.3994 12.2134 26.3876 12.219 26.3757 12.2243C26.3641 12.2296 26.3523 12.2346 26.3404 12.2393C26.3287 12.244 26.3169 12.2484 26.3051 12.2526C26.2934 12.2568 26.2816 12.2606 26.2697 12.2643C26.258 12.2679 26.2463 12.2712 26.2344 12.2744C26.2227 12.2775 26.2109 12.2803 26.1991 12.2829C26.1874 12.2855 26.1756 12.2879 26.1637 12.29L26.1552 12.2916C26.1483 12.2928 26.1391 12.2941 26.1284 12.2955C26.118 12.2969 26.106 12.2982 26.0931 12.2996C26.0819 12.3007 26.07 12.3018 26.0577 12.3029C26.0462 12.3039 26.0343 12.3047 26.0224 12.3055C26.0105 12.3063 25.9986 12.3069 25.987 12.3074C25.9748 12.3079 25.9629 12.3082 25.9517 12.3083L25.9461 12.3083H25.9164H25.881H25.8457H25.8104H25.775H25.7397H25.7044H25.6691H25.6337H25.5984H25.5631H25.5277H25.4924H25.457H25.4217H25.3864H25.351H25.3157H25.2804H25.245H25.2097H25.1744H25.139H25.1037H25.0683H25.033H24.9977H24.9624H24.927H24.8917H24.8564H24.821H24.7857H24.7504H24.715H24.6797H24.6443H24.609H24.5737H24.5383H24.503H24.4677H24.4323H24.397H24.3617H24.3263H24.291H24.2557H24.2203H24.185H24.1497H24.1143H24.079H24.0437H24.0251V10.5006H24.0437H24.079H24.1143H24.1497H24.185H24.2203H24.2557H24.291H24.3263H24.3617H24.397H24.4323H24.4677H24.503H24.5383H24.5737H24.609H24.6443H24.6797H24.715H24.7504H24.7857H24.821H24.8564H24.8917H24.927H24.9624H24.9977H25.033H25.0683H25.1037H25.139H25.1744H25.2097H25.245H25.2804H25.3157H25.351H25.3864H25.4217H25.457H25.4924H25.5277H25.5631H25.5984H25.6337H25.6691H25.7044H25.7397H25.775H25.8104H25.8457H25.881H25.9164H25.9517H25.9666L25.987 10.5013C25.9986 10.5018 26.0105 10.5025 26.0224 10.5033C26.0343 10.504 26.0462 10.5049 26.0577 10.5059C26.07 10.5069 26.0819 10.508 26.0931 10.5091C26.106 10.5104 26.118 10.5117 26.1284 10.5129C26.1391 10.5141 26.1483 10.5153 26.1552 10.5163L26.1637 10.5179C26.1756 10.52 26.1874 10.5224 26.1991 10.5251C26.2109 10.5277 26.2227 10.5306 26.2344 10.5337C26.2463 10.5369 26.258 10.5403 26.2697 10.5439C26.2816 10.5476 26.2934 10.5515 26.3051 10.5556C26.3169 10.5598 26.3287 10.5643 26.3404 10.569C26.3523 10.5738 26.3641 10.5788 26.3757 10.5841C26.3876 10.5895 26.3994 10.5951 26.4111 10.601C26.423 10.607 26.4348 10.6133 26.4464 10.6198C26.4583 10.6265 26.4701 10.6335 26.4817 10.6408C26.4937 10.6482 26.5055 10.656 26.5171 10.664C26.5291 10.6723 26.5408 10.681 26.5524 10.6899C26.5644 10.6991 26.5762 10.7087 26.5877 10.7185C26.5998 10.7289 26.6116 10.7395 26.6231 10.7505C26.6352 10.7621 26.647 10.774 26.6584 10.7863C26.6706 10.7993 26.6823 10.8129 26.6937 10.8268C26.706 10.8417 26.7178 10.8571 26.7291 10.873C26.7414 10.8904 26.7533 10.9083 26.7644 10.9268C26.777 10.9477 26.7888 10.9693 26.7997 10.9915C26.8128 11.0181 26.8246 11.0456 26.8351 11.074C26.8494 11.1129 26.8613 11.1535 26.8704 11.1958ZM31.2526 1.82214H31.2671L31.267 20.3878C31.267 20.4987 31.262 20.6084 31.2526 20.7169C31.2443 20.8123 31.2325 20.9067 31.2172 20.9999C31.207 21.0626 31.1952 21.1247 31.1819 21.1862C31.1711 21.2363 31.1593 21.286 31.1465 21.3353C31.1355 21.3778 31.1237 21.42 31.1112 21.4619C31.0999 21.4998 31.0883 21.5376 31.0758 21.575C31.0646 21.6088 31.0527 21.6425 31.0405 21.676C31.0292 21.7071 31.0173 21.7381 31.0052 21.7688C30.9937 21.7977 30.982 21.8264 30.9698 21.855C30.9584 21.882 30.9466 21.9089 30.9345 21.9356C30.923 21.961 30.9112 21.9863 30.8992 22.0114C30.8876 22.0355 30.8758 22.0595 30.8638 22.0832C30.8523 22.106 30.8405 22.1287 30.8285 22.1512C30.8169 22.1728 30.8051 22.1943 30.7931 22.2156C30.7816 22.2363 30.7697 22.2569 30.7578 22.2773C30.7462 22.2972 30.7344 22.317 30.7224 22.3367C30.7108 22.3558 30.6991 22.3749 30.6871 22.3938C30.6755 22.4121 30.6636 22.4303 30.6517 22.4483C30.6401 22.466 30.6283 22.4834 30.6164 22.5008C30.6047 22.5179 30.593 22.5349 30.5811 22.5517C30.5694 22.5682 30.5576 22.5846 30.5457 22.6009C30.5341 22.6167 30.5222 22.6324 30.5104 22.648C30.4987 22.6635 30.4869 22.6788 30.475 22.6941C30.4634 22.709 30.4516 22.7238 30.4397 22.7386C30.428 22.753 30.4162 22.7672 30.4044 22.7815C30.3926 22.7956 30.381 22.8097 30.369 22.8236C30.3574 22.8372 30.3455 22.8506 30.3337 22.864C30.322 22.8772 30.3102 22.8904 30.2983 22.9034C30.2866 22.9163 30.2749 22.9292 30.263 22.9419C30.2513 22.9544 30.2395 22.9667 30.2276 22.979C30.2159 22.9912 30.2042 23.0035 30.1923 23.0156C30.1806 23.0274 30.1688 23.0389 30.157 23.0506C30.1452 23.0621 30.1335 23.0737 30.1216 23.0851C30.1099 23.0963 30.0981 23.1074 30.0863 23.1184C30.0746 23.1294 30.0628 23.1403 30.0509 23.1511C30.0392 23.1617 30.0275 23.1724 30.0156 23.1829C30.0039 23.1933 29.9921 23.2035 29.9802 23.2138C29.9685 23.2239 29.9568 23.2341 29.9449 23.2441C29.9332 23.254 29.9214 23.2637 29.9096 23.2734C29.8978 23.283 29.8861 23.2927 29.8742 23.3022C29.8626 23.3116 29.8507 23.3208 29.8389 23.33C29.8271 23.3392 29.8154 23.3484 29.8036 23.3575C29.7919 23.3664 29.78 23.3751 29.7682 23.3839C29.7564 23.3926 29.7447 23.4015 29.7329 23.4101C29.7212 23.4186 29.7093 23.4268 29.6975 23.4352C29.6857 23.4435 29.674 23.4519 29.6622 23.46C29.6505 23.4681 29.6386 23.476 29.6268 23.4839C29.6151 23.4919 29.6034 23.4998 29.5915 23.5076C29.5798 23.5153 29.568 23.5228 29.5562 23.5303C29.5444 23.5379 29.5326 23.5454 29.5208 23.5527C29.5091 23.5601 29.4973 23.5673 29.4855 23.5745L29.4501 23.5957C29.4384 23.6026 29.4266 23.6096 29.4148 23.6164C29.4031 23.6232 29.3912 23.6298 29.3794 23.6364C29.3677 23.6431 29.356 23.6498 29.3441 23.6562C29.3324 23.6626 29.3206 23.6689 29.3088 23.6752C29.297 23.6815 29.2853 23.6879 29.2734 23.6941C29.2617 23.7002 29.2499 23.706 29.2381 23.7119C29.2263 23.7179 29.2146 23.7239 29.2027 23.7297C29.191 23.7355 29.1792 23.7411 29.1674 23.7468L29.132 23.7635L29.0967 23.7798C29.085 23.7851 29.0732 23.7903 29.0614 23.7955C29.0496 23.8006 29.0379 23.8059 29.026 23.811C29.0143 23.816 29.0025 23.8207 28.9907 23.8256C28.9789 23.8305 28.9672 23.8355 28.9554 23.8403C28.9436 23.845 28.9318 23.8495 28.92 23.8541C28.9083 23.8587 28.8965 23.8632 28.8847 23.8677L28.8493 23.8809C28.8376 23.8852 28.8257 23.8894 28.814 23.8935C28.8022 23.8977 28.7905 23.9021 28.7786 23.9061C28.7669 23.9101 28.7551 23.9139 28.7433 23.9178L28.708 23.9294C28.6962 23.9332 28.6844 23.9368 28.6726 23.9404L28.6373 23.9511C28.6255 23.9546 28.6138 23.9582 28.6019 23.9616C28.5902 23.9649 28.5784 23.9681 28.5666 23.9713C28.5548 23.9745 28.5431 23.9779 28.5312 23.981L28.4959 23.99L28.4606 23.9988L28.4252 24.0073C28.4135 24.01 28.4017 24.0125 28.3899 24.0151C28.3781 24.0177 28.3664 24.0204 28.3545 24.0229L28.3192 24.0301L28.2838 24.0369C28.2721 24.0392 28.2603 24.0416 28.2485 24.0437C28.2368 24.0458 28.2249 24.0476 28.2132 24.0496L28.1778 24.0556L28.1425 24.061L28.1072 24.066C28.0954 24.0676 28.0836 24.0694 28.0718 24.071C28.0601 24.0725 28.0482 24.0737 28.0365 24.0751C28.0247 24.0765 28.0129 24.0779 28.0011 24.0792C27.9893 24.0805 27.9776 24.0818 27.9658 24.0829C27.9541 24.0841 27.9422 24.0851 27.9304 24.0861C27.9186 24.0872 27.9069 24.0883 27.8951 24.0893C27.8833 24.0902 27.8715 24.091 27.8598 24.0918L27.8244 24.094C27.8126 24.0948 27.8009 24.0956 27.7891 24.0962C27.7773 24.0968 27.7655 24.0971 27.7537 24.0976L27.7184 24.0989L27.683 24.0999C27.6713 24.1001 27.6595 24.1002 27.6477 24.1003L27.6124 24.1008L27.6051 24.1009H27.577H27.5417H27.5064H27.471H27.4356H27.4003H27.365H27.3296H27.2943H27.259H27.2236H27.1883H27.1529H27.1176H27.0822H27.0469H27.0116H26.9762H26.9409H26.9055H26.8702H26.8348H26.7995H26.7642H26.7288H26.6935H26.6582H26.6228H26.5874H26.5521H26.5168H26.4814H26.4461H26.4108H26.3754H26.3401H26.3047H26.2694H26.234H26.1987H26.1634H26.128H26.0927H26.0573H26.022H25.9866H25.9513H25.916H25.8806H25.8453H25.81H25.7746H25.7393H25.7039H25.6686H25.6332H25.5979H25.5626H25.5272H25.4919H25.4565H25.4212H25.3858H25.3505H25.3152H25.2798H25.2445H25.2091H25.1738H25.1384H25.1031H25.0678H25.0324H24.9971H24.9618H24.9264H24.8911H24.8557H24.8204H24.785H24.7497H24.7144H24.679H24.6437H24.6083H24.573H24.5376H24.5023H24.467H24.4316H24.3963H24.3609H24.3256H24.2902H24.2549H24.2196H24.1842H24.1489H24.1135H24.0782H24.0429H24.0075H23.9722H23.9368H23.9015H23.8662H23.8308H23.7955H23.7601H23.7248H23.6894H23.6541H23.6188H23.5834H23.5481H23.5127H23.4774H23.4421H23.4067H23.3714H23.336H23.3007H23.2653H23.23H23.1947H23.1593H23.124H23.0886H23.0533H23.0179H22.9826H22.9473H22.9119H22.8766H22.8412H22.8059H22.7706H22.7352H22.6999H22.6645H22.6292H22.5939H22.5585H22.5232H22.4878H22.4525H22.4171H22.3818H22.3465H22.3111H22.2349V16.531H22.3111H22.3465H22.3818H22.4171H22.4525H22.4878H22.5232H22.5585H22.5939H22.6292H22.6645H22.6999H22.7352H22.7706H22.8059H22.8412H22.8766H22.9119H22.9473H22.9826H23.0179H23.0533H23.0886H23.124H23.1593H23.1947H23.23H23.2653H23.3007H23.336H23.3714H23.4067H23.4421H23.4774H23.5127H23.5481H23.5834H23.6188H23.6541H23.6894H23.7248H23.7601H23.7955H23.8308H23.8662H23.9015H23.9368H23.9722H24.0075H24.0429H24.0782H24.1135H24.1489H24.1842H24.2196H24.2549H24.2902H24.3256H24.3609H24.3963H24.4316H24.467H24.5023H24.5376H24.573H24.6083H24.6437H24.679H24.7144H24.7497H24.785H24.8204H24.8557H24.8911H24.9264H24.9618H24.9971H25.0324H25.0678H25.1031H25.1384H25.1738H25.2091H25.2445H25.2798H25.3152H25.3505H25.3858H25.4212H25.4565H25.4919H25.5272H25.5626H25.5979H25.6332H25.6686H25.7039H25.7393H25.7746H25.81H25.8453H25.8806H25.916H25.9513H25.9866H26.022H26.0573H26.0927H26.128H26.1634H26.1987H26.234H26.2694H26.3047H26.3401H26.3754H26.4108H26.4461H26.4814H26.5168H26.5521H26.5874H26.6228H26.6582H26.6935H26.7288H26.7642H26.7995H26.8348H26.8702H26.9055H26.9409H26.9762H27.0116H27.0469H27.0822H27.1176H27.1529H27.1883H27.2236H27.259H27.2943H27.3296H27.365H27.4003H27.4356H27.471H27.5064H27.5417H27.577H27.6124H27.6477H27.683H27.7184H27.7537H27.7891H27.8244H27.8598H27.8951H27.9138L27.9304 16.5309L27.9658 16.5306L28.0011 16.5298C28.0129 16.5295 28.0247 16.5294 28.0365 16.5289C28.0483 16.5285 28.06 16.528 28.0718 16.5274L28.1072 16.5258L28.1425 16.5236L28.1778 16.5211L28.2132 16.5183L28.2485 16.515C28.2603 16.5139 28.2721 16.5128 28.2838 16.5116C28.2957 16.5103 28.3074 16.5089 28.3192 16.5075L28.3545 16.5031C28.3664 16.5016 28.3781 16.5001 28.3899 16.4984C28.4017 16.4968 28.4135 16.4949 28.4252 16.4931C28.437 16.4913 28.4488 16.4896 28.4606 16.4876L28.4959 16.4816L28.5312 16.4751C28.543 16.4729 28.5549 16.4708 28.5666 16.4684C28.5784 16.466 28.5902 16.4635 28.6019 16.461L28.6373 16.4532C28.6491 16.4506 28.6609 16.4479 28.6726 16.4451C28.6845 16.4423 28.6962 16.4393 28.708 16.4363C28.7198 16.4333 28.7316 16.4303 28.7433 16.4272C28.7551 16.424 28.7669 16.4208 28.7786 16.4176C28.7905 16.4143 28.8022 16.4108 28.814 16.4073C28.8258 16.4039 28.8376 16.4003 28.8493 16.3967L28.8847 16.3855C28.8965 16.3816 28.9083 16.3777 28.92 16.3736C28.9318 16.3696 28.9436 16.3656 28.9554 16.3614C28.9672 16.3572 28.979 16.3529 28.9907 16.3486C29.0026 16.3442 29.0143 16.3395 29.026 16.3349C29.0379 16.3303 29.0496 16.3256 29.0614 16.3208C29.0732 16.316 29.085 16.3112 29.0967 16.3062C29.1086 16.3011 29.1203 16.296 29.132 16.2907C29.1439 16.2855 29.1557 16.2801 29.1674 16.2746C29.1792 16.2691 29.191 16.2635 29.2027 16.2578C29.2146 16.2521 29.2264 16.2463 29.2381 16.2404C29.25 16.2344 29.2617 16.2282 29.2734 16.222C29.2853 16.2158 29.297 16.2093 29.3088 16.2029C29.3207 16.1963 29.3324 16.1897 29.3441 16.1829C29.356 16.1761 29.3678 16.1692 29.3794 16.1621C29.3913 16.155 29.4031 16.1478 29.4148 16.1405C29.4267 16.133 29.4384 16.1254 29.4501 16.1177C29.462 16.1098 29.4738 16.1019 29.4855 16.0938C29.4974 16.0856 29.5091 16.0773 29.5208 16.0689C29.5327 16.0603 29.5445 16.0517 29.5562 16.0429C29.5681 16.0339 29.5799 16.0248 29.5915 16.0156C29.6034 16.0062 29.6152 15.9966 29.6268 15.987C29.6388 15.9771 29.6505 15.9671 29.6622 15.957C29.6741 15.9466 29.6859 15.936 29.6975 15.9253C29.7095 15.9144 29.7213 15.9032 29.7329 15.892C29.7448 15.8804 29.7566 15.8687 29.7682 15.8568C29.7802 15.8445 29.792 15.8321 29.8036 15.8195C29.8155 15.8065 29.8273 15.7933 29.8389 15.7799C29.8509 15.7661 29.8627 15.752 29.8742 15.7378C29.8863 15.723 29.8981 15.7079 29.9096 15.6928C29.9216 15.6768 29.9335 15.6608 29.9449 15.6445C29.9571 15.6272 29.9688 15.6096 29.9802 15.5918C29.9924 15.573 30.0042 15.5539 30.0156 15.5346C30.0278 15.5139 30.0396 15.4928 30.0509 15.4715C30.0632 15.4483 30.0751 15.4248 30.0863 15.401C30.0988 15.3743 30.1105 15.3472 30.1216 15.3198C30.1343 15.2883 30.1462 15.2564 30.157 15.2239C30.1703 15.1839 30.182 15.143 30.1923 15.1015C30.2074 15.0407 30.2192 14.9784 30.2276 14.9145C30.2379 14.837 30.2433 14.7574 30.2433 14.6755C30.2433 14.5958 30.238 14.5184 30.2276 14.4432C30.2192 14.3815 30.2073 14.3213 30.1923 14.2627C30.182 14.2227 30.1702 14.1835 30.157 14.1451C30.1461 14.1136 30.1344 14.0825 30.1216 14.052C30.1106 14.0256 30.0988 13.9996 30.0863 13.974C30.0751 13.951 30.0633 13.9282 30.0509 13.9058C30.0396 13.8852 30.0278 13.8648 30.0156 13.8448C30.0042 13.8262 29.9924 13.8078 29.9802 13.7897C29.9688 13.7726 29.957 13.7556 29.9449 13.7389C29.9335 13.7232 29.9216 13.7077 29.9096 13.6924C29.8981 13.6777 29.8863 13.6632 29.8742 13.6489C29.8627 13.6352 29.8509 13.6216 29.8389 13.6082C29.8273 13.5953 29.8156 13.5826 29.8036 13.57C29.792 13.5579 29.7802 13.5459 29.7682 13.5341C29.7566 13.5226 29.7448 13.5113 29.7329 13.5002C29.7213 13.4893 29.7094 13.4786 29.6975 13.4681C29.6859 13.4577 29.6741 13.4476 29.6622 13.4375C29.6505 13.4277 29.6388 13.418 29.6268 13.4085C29.6152 13.3991 29.6034 13.3899 29.5915 13.3808C29.5798 13.3719 29.5681 13.3631 29.5562 13.3544C29.5445 13.3459 29.5327 13.3375 29.5208 13.3292C29.5091 13.3211 29.4974 13.3131 29.4855 13.3052C29.4738 13.2974 29.462 13.2897 29.4501 13.2821C29.4384 13.2747 29.4267 13.2673 29.4148 13.2601C29.4031 13.253 29.3913 13.246 29.3794 13.239C29.3678 13.2322 29.356 13.2255 29.3441 13.2189C29.3324 13.2124 29.3207 13.2059 29.3088 13.1996C29.2971 13.1933 29.2853 13.1872 29.2734 13.1811C29.2617 13.1751 29.2499 13.1691 29.2381 13.1632C29.2264 13.1575 29.2146 13.1517 29.2027 13.1461C29.191 13.1406 29.1792 13.1352 29.1674 13.1299C29.1557 13.1246 29.1439 13.1194 29.132 13.1142C29.1203 13.1092 29.1086 13.1042 29.0967 13.0992C29.085 13.0944 29.0733 13.0895 29.0614 13.0848C29.0496 13.0801 29.0379 13.0755 29.026 13.071C29.0143 13.0665 29.0025 13.0622 28.9907 13.0579C28.979 13.0536 28.9672 13.0495 28.9554 13.0453C28.9436 13.0412 28.9319 13.0371 28.92 13.0332C28.9083 13.0292 28.8965 13.0254 28.8847 13.0216C28.873 13.0179 28.8611 13.0143 28.8493 13.0107L28.814 13.0002C28.8022 12.9967 28.7905 12.9933 28.7786 12.9901C28.7669 12.9868 28.7551 12.9837 28.7433 12.9806C28.7316 12.9775 28.7198 12.9745 28.708 12.9716C28.6962 12.9686 28.6844 12.9657 28.6726 12.9629C28.6609 12.9601 28.6491 12.9574 28.6373 12.9548C28.6256 12.9522 28.6138 12.9496 28.6019 12.9471C28.5902 12.9446 28.5784 12.9421 28.5666 12.9398L28.5312 12.9329L28.4959 12.9265C28.4842 12.9245 28.4724 12.9224 28.4606 12.9205L28.4252 12.9148C28.4135 12.913 28.4017 12.9113 28.3899 12.9096L28.3545 12.9047L28.3192 12.9002L28.2838 12.8962L28.2485 12.8924L28.2132 12.8891L28.1778 12.8861L28.1452 12.8835L28.1452 12.8406L28.1778 12.8354L28.2132 12.8295C28.225 12.8275 28.2368 12.8254 28.2485 12.8233L28.2838 12.8164C28.2957 12.814 28.3075 12.8115 28.3192 12.809L28.3545 12.8012C28.3664 12.7985 28.3782 12.7958 28.3899 12.7929C28.4017 12.79 28.4135 12.787 28.4252 12.7839C28.4371 12.7809 28.4488 12.7777 28.4606 12.7745C28.4724 12.7712 28.4842 12.7679 28.4959 12.7645C28.5078 12.761 28.5196 12.7575 28.5312 12.7539C28.5431 12.7503 28.5549 12.7466 28.5666 12.7428C28.5785 12.7389 28.5902 12.7349 28.6019 12.7309C28.6138 12.7268 28.6256 12.7227 28.6373 12.7184C28.6491 12.7142 28.6609 12.7098 28.6726 12.7054C28.6845 12.7009 28.6963 12.6963 28.708 12.6916C28.7198 12.6869 28.7316 12.6821 28.7433 12.6772C28.7552 12.6722 28.767 12.6671 28.7786 12.6619C28.7905 12.6567 28.8023 12.6513 28.814 12.6459C28.8259 12.6404 28.8376 12.6348 28.8493 12.6291C28.8612 12.6233 28.873 12.6174 28.8847 12.6114C28.8965 12.6053 28.9083 12.5991 28.92 12.5929C28.9319 12.5865 28.9437 12.58 28.9554 12.5734C28.9673 12.5667 28.979 12.5599 28.9907 12.553C29.0026 12.5459 29.0144 12.5388 29.026 12.5315C29.038 12.5241 29.0497 12.5167 29.0614 12.5091C29.0733 12.5013 29.0851 12.4934 29.0967 12.4854C29.1086 12.4772 29.1204 12.4689 29.132 12.4605C29.144 12.4519 29.1558 12.4432 29.1674 12.4344C29.1794 12.4253 29.1911 12.4162 29.2027 12.4069C29.2147 12.3973 29.2265 12.3877 29.2381 12.3779C29.25 12.3678 29.2618 12.3575 29.2734 12.3472C29.2854 12.3365 29.2972 12.3256 29.3088 12.3147C29.3207 12.3034 29.3325 12.2919 29.3441 12.2803C29.3561 12.2683 29.3679 12.2562 29.3794 12.2439C29.3915 12.2311 29.4033 12.2181 29.4148 12.205C29.4268 12.1913 29.4386 12.1775 29.4501 12.1635C29.4622 12.1488 29.474 12.134 29.4855 12.119C29.4976 12.1031 29.5094 12.0871 29.5208 12.0709C29.533 12.0537 29.5447 12.0363 29.5562 12.0187C29.5683 11.9999 29.5802 11.981 29.5915 11.9618C29.6038 11.9409 29.6156 11.9199 29.6268 11.8986C29.6392 11.8751 29.651 11.8514 29.6622 11.8275C29.6747 11.8005 29.6865 11.7731 29.6975 11.7455C29.7104 11.7133 29.7221 11.6807 29.7329 11.6476C29.7463 11.6061 29.7581 11.5638 29.7682 11.521C29.7845 11.4516 29.7963 11.3808 29.8036 11.3087C29.8093 11.2519 29.8123 11.1943 29.8123 11.1361C29.8123 11.0746 29.8093 11.0147 29.8036 10.9563C29.7963 10.8816 29.7844 10.8095 29.7682 10.7399C29.7581 10.6964 29.7463 10.6539 29.7329 10.6124C29.7221 10.5792 29.7103 10.5467 29.6975 10.5148C29.6865 10.4873 29.6747 10.4603 29.6622 10.4338C29.651 10.4102 29.6392 10.3869 29.6268 10.364C29.6155 10.3431 29.6037 10.3225 29.5915 10.3022C29.5801 10.2833 29.5683 10.2647 29.5562 10.2464C29.5447 10.2293 29.5329 10.2124 29.5208 10.1958C29.5094 10.18 29.4976 10.1645 29.4855 10.1492C29.4739 10.1346 29.4622 10.1201 29.4501 10.1059C29.4386 10.0924 29.4268 10.0791 29.4148 10.0659C29.4033 10.0533 29.3915 10.0408 29.3794 10.0285C29.3679 10.0166 29.3561 10.0049 29.3441 9.99333C29.3325 9.98213 29.3207 9.97105 29.3088 9.96018C29.2972 9.94963 29.2854 9.93921 29.2734 9.92893C29.2618 9.91895 29.25 9.90909 29.2381 9.89937C29.2265 9.88993 29.2147 9.88057 29.2027 9.87139C29.1911 9.86242 29.1793 9.8536 29.1674 9.8449C29.1557 9.83637 29.144 9.82799 29.132 9.81971C29.1204 9.81163 29.1086 9.80367 29.0967 9.79579C29.0851 9.78807 29.0733 9.78047 29.0614 9.77298C29.0497 9.76564 29.0379 9.75843 29.026 9.7513C29.0144 9.74429 29.0026 9.7374 28.9907 9.73059C28.979 9.72391 28.9673 9.71732 28.9554 9.71084C28.9437 9.70445 28.9319 9.69822 28.92 9.69201C28.9083 9.68592 28.8965 9.67992 28.8847 9.67401C28.873 9.66819 28.8612 9.66239 28.8493 9.65678C28.8376 9.65123 28.8258 9.64573 28.814 9.64038C28.8023 9.6351 28.7905 9.62999 28.7786 9.62485C28.767 9.6198 28.7551 9.61484 28.7433 9.60994C28.7316 9.60512 28.7198 9.60037 28.708 9.59571C28.6962 9.5911 28.6845 9.58653 28.6726 9.58207C28.6609 9.57768 28.6491 9.57337 28.6373 9.56912C28.6256 9.56493 28.6138 9.56086 28.6019 9.55682C28.5902 9.55284 28.5784 9.54895 28.5666 9.54512C28.5549 9.54132 28.5431 9.53758 28.5312 9.53392C28.5195 9.5303 28.5078 9.52667 28.4959 9.5232C28.4842 9.51978 28.4724 9.51649 28.4606 9.51322C28.4488 9.50995 28.4371 9.5068 28.4252 9.50368L28.3899 9.49456C28.3781 9.49162 28.3664 9.48874 28.3545 9.48595C28.3428 9.48319 28.331 9.48051 28.3192 9.4779L28.2838 9.47027C28.2721 9.4678 28.2604 9.46531 28.2485 9.46299C28.2368 9.46067 28.225 9.45853 28.2132 9.45634L28.1778 9.45004C28.1661 9.44802 28.1543 9.44597 28.1425 9.44407L28.1072 9.43863L28.0718 9.43358L28.0365 9.42883L28.0011 9.42458L27.9658 9.42072L27.9304 9.41713L27.8951 9.41398L27.8598 9.41122L27.8244 9.40866L27.7891 9.40661L27.775 9.40581L27.7537 9.40447L27.7184 9.40236L27.683 9.40037L27.6477 9.3985L27.6124 9.39678L27.577 9.39523L27.5417 9.39393L27.5064 9.39283L27.471 9.39203L27.4356 9.39155L27.4162 9.39149H27.4003H27.365H27.3296H27.2943H27.259H27.2236H27.1883H27.1529H27.1176H27.0822H27.0469H27.0116H26.9762H26.9409H26.9055H26.8702H26.8348H26.7995H26.7642H26.7288H26.6935H26.6582H26.6228H26.5874H26.5521H26.5168H26.4814H26.4461H26.4108H26.3754H26.3401H26.3047H26.2694H26.234H26.1987H26.1634H26.128H26.0927H26.0573H26.022H25.9866H25.9513H25.916H25.8806H25.8453H25.81H25.7746H25.7393H25.7039H25.6686H25.6332H25.5979H25.5626H25.5272H25.4919H25.4565H25.4212H25.3858H25.3505H25.3152H25.2798H25.2445H25.2091H25.1738H25.1384H25.1031H25.0678H25.0324H24.9971H24.9618H24.9264H24.8911H24.8557H24.8204H24.785H24.7497H24.7144H24.679H24.6437H24.6083H24.573H24.5376H24.5023H24.467H24.4316H24.3963H24.3609H24.3256H24.2902H24.2549H24.2196H24.1842H24.1489H24.1135H24.0782H24.0429H24.0075H23.9722H23.9368H23.9015H23.8662H23.8308H23.7955H23.7601H23.7248H23.6894H23.6541H23.6188H23.5834H23.5481H23.5127H23.4774H23.4421H23.4067H23.3714H23.336H23.3007H23.2653H23.23H23.1947H23.1593H23.124H23.0886H23.0533H23.0179H22.9826H22.9473H22.9119H22.8766H22.8412H22.8059H22.7706H22.7352H22.6999H22.6645H22.6292H22.5939H22.5585H22.5232H22.4878H22.4525H22.4171H22.3818H22.3465H22.3111H22.2349V5.53557C22.2349 5.27617 22.2612 5.02303 22.3111 4.77862C22.3218 4.72628 22.3336 4.67439 22.3465 4.62291C22.3575 4.57886 22.3693 4.53514 22.3818 4.49174C22.393 4.45298 22.4048 4.41448 22.4171 4.37625C22.4285 4.34132 22.4402 4.30657 22.4525 4.27211C22.4639 4.24015 22.4756 4.20836 22.4878 4.17682C22.4993 4.14735 22.511 4.11803 22.5232 4.08895C22.5347 4.06151 22.5464 4.03418 22.5585 4.00706C22.57 3.98131 22.5818 3.95573 22.5939 3.9303C22.6053 3.90603 22.6172 3.88194 22.6292 3.85797C22.6407 3.83492 22.6526 3.81205 22.6645 3.78927C22.6761 3.76732 22.6879 3.74551 22.6999 3.72383C22.7115 3.7028 22.7232 3.68195 22.7352 3.66118C22.7469 3.64104 22.7586 3.62099 22.7706 3.60112C22.7822 3.58184 22.794 3.56271 22.8059 3.54367C22.8175 3.52523 22.8293 3.50696 22.8412 3.48875C22.8529 3.47093 22.8646 3.45317 22.8766 3.43555C22.8883 3.41829 22.8999 3.40104 22.9119 3.38399C22.9235 3.36747 22.9354 3.35116 22.9473 3.33485C22.9589 3.31881 22.9707 3.30289 22.9826 3.28706C22.9943 3.27147 23.006 3.25581 23.0179 3.24043C23.0296 3.22545 23.0415 3.21072 23.0533 3.19593C23.065 3.18134 23.0767 3.16688 23.0886 3.1525C23.1003 3.1383 23.1121 3.1241 23.124 3.11008C23.1356 3.09642 23.1475 3.08299 23.1593 3.06951C23.1711 3.05614 23.1827 3.04274 23.1947 3.02956C23.2063 3.01663 23.2182 3.00383 23.23 2.99106C23.2417 2.97846 23.2535 2.96596 23.2653 2.95351C23.2771 2.94125 23.2888 2.92898 23.3007 2.91686C23.3124 2.90495 23.3242 2.89321 23.336 2.88148C23.3478 2.86981 23.3594 2.85801 23.3714 2.84652C23.383 2.83526 23.3949 2.82427 23.4067 2.81316C23.4185 2.80211 23.4302 2.79103 23.4421 2.78013C23.4538 2.76941 23.4656 2.75889 23.4774 2.74835C23.4891 2.73786 23.5009 2.72738 23.5127 2.71704C23.5245 2.70685 23.5362 2.69681 23.5481 2.68677C23.5598 2.67682 23.5716 2.6669 23.5834 2.6571C23.5951 2.64738 23.6069 2.63779 23.6188 2.62825L23.6541 2.60006L23.6894 2.57262C23.7012 2.56362 23.713 2.55468 23.7248 2.54582C23.7365 2.53706 23.7483 2.52833 23.7601 2.51968L23.7955 2.49423C23.8072 2.48588 23.819 2.47759 23.8308 2.4694L23.8662 2.44513L23.9015 2.42151C23.9133 2.41376 23.925 2.40604 23.9368 2.39843L23.9722 2.37604C23.984 2.36864 23.9957 2.36124 24.0075 2.354C24.0192 2.34681 24.0311 2.33983 24.0429 2.33279C24.0546 2.32575 24.0663 2.31865 24.0782 2.31176C24.0899 2.30495 24.1018 2.29839 24.1135 2.29171C24.1253 2.28502 24.137 2.27822 24.1489 2.27169C24.1606 2.26524 24.1725 2.259 24.1842 2.25267C24.196 2.24635 24.2077 2.23999 24.2196 2.23378C24.2313 2.22763 24.2431 2.22166 24.2549 2.21566C24.2667 2.20969 24.2784 2.20369 24.2902 2.19784L24.3256 2.18052C24.3373 2.17485 24.3491 2.16933 24.3609 2.16377C24.3727 2.15825 24.3844 2.15263 24.3963 2.14723C24.408 2.14188 24.4199 2.13677 24.4316 2.13154C24.4434 2.12631 24.4551 2.121 24.467 2.11589C24.4787 2.11084 24.4905 2.10603 24.5023 2.10109C24.5141 2.09619 24.5258 2.09123 24.5376 2.08645L24.573 2.07234L24.6083 2.05871C24.6201 2.05419 24.6318 2.04962 24.6437 2.04525C24.6554 2.04091 24.6672 2.03684 24.679 2.03263C24.6908 2.02841 24.7025 2.0241 24.7144 2.02C24.7261 2.01593 24.7379 2.0121 24.7497 2.00815L24.785 1.99654C24.7968 1.99273 24.8086 1.9889 24.8204 1.98522C24.8321 1.98157 24.8439 1.97812 24.8557 1.97458C24.8675 1.97102 24.8792 1.96734 24.8911 1.96392C24.9028 1.96054 24.9146 1.95739 24.9264 1.95412C24.9382 1.95085 24.9499 1.94755 24.9618 1.94441L24.9971 1.93514C25.0088 1.93214 25.0206 1.92929 25.0324 1.9264C25.0442 1.92352 25.0559 1.92043 25.0678 1.91767C25.0795 1.91494 25.0913 1.91244 25.1031 1.9098L25.1384 1.90199L25.1738 1.89459C25.1855 1.89222 25.1973 1.88999 25.2091 1.88773C25.2209 1.88544 25.2326 1.88301 25.2445 1.88084C25.2562 1.87867 25.2681 1.87683 25.2798 1.87481L25.3152 1.86887C25.3269 1.86697 25.3387 1.86501 25.3505 1.86322C25.3623 1.86144 25.3741 1.85987 25.3858 1.8582C25.3976 1.85654 25.4094 1.85473 25.4212 1.85318C25.4329 1.85164 25.4447 1.85027 25.4565 1.84885L25.4919 1.84475C25.5036 1.84344 25.5154 1.84199 25.5272 1.8408C25.5389 1.83961 25.5508 1.83869 25.5626 1.83762L25.5979 1.83444L25.6332 1.83174C25.645 1.83088 25.6568 1.83019 25.6686 1.82945C25.6803 1.82874 25.6921 1.82782 25.7039 1.82719C25.7157 1.82657 25.7275 1.82621 25.7393 1.82571L25.7746 1.82437C25.7864 1.82399 25.7981 1.82348 25.81 1.82321C25.8217 1.82295 25.8335 1.82292 25.8453 1.82274C25.8571 1.82256 25.8688 1.82235 25.8806 1.82229L25.8895 1.82217H25.916H25.9513H25.9866H26.022H26.0573H26.0927H26.128H26.1634H26.1987H26.234H26.2694H26.3047H26.3401H26.3754H26.4108H26.4461H26.4814H26.5168H26.5521H26.5874H26.6228H26.6582H26.6935H26.7288H26.7642H26.7995H26.8348H26.8702H26.9055H26.9409H26.9762H27.0116H27.0469H27.0822H27.1176H27.1529H27.1883H27.2236H27.259H27.2943H27.3296H27.365H27.4003H27.4356H27.471H27.5064H27.5417H27.577H27.6124H27.6477H27.683H27.7184H27.7537H27.7891H27.8244H27.8598H27.8951H27.9304H27.9658H28.0011H28.0365H28.0718H28.1072H28.1425H28.1778H28.2132H28.2485H28.2838H28.3192H28.3545H28.3899H28.4252H28.4606H28.4959H28.5312H28.5666H28.6019H28.6373H28.6726H28.708H28.7433H28.7786H28.814H28.8493H28.8847H28.92H28.9554H28.9907H29.026H29.0614H29.0967H29.132H29.1674H29.2027H29.2381H29.2734H29.3088H29.3441H29.3794H29.4148H29.4501H29.4855H29.5208H29.5562H29.5915H29.6268H29.6622H29.6975H29.7329H29.7682H29.8036H29.8389H29.8742H29.9096H29.9449H29.9802H30.0156H30.0509H30.0863H30.1216H30.157H30.1923H30.2276H30.263H30.2983H30.3337H30.369H30.4044H30.4397H30.475H30.5104H30.5457H30.5811H30.6164H30.6517H30.6871H30.7224H30.7578H30.7931H30.8285H30.8638H30.8992H30.9345H30.9698H31.0052H31.0405H31.0758H31.1112H31.1465H31.1819H31.2172H31.2526V1.82214Z" fill="url(#paint0_linear_48:726)"/>
<path fill-rule="evenodd" clip-rule="evenodd" d="M2.05088 14.7426C2.0256 14.7304 2.00035 14.7182 1.9751 14.7058V5.53554C1.9751 5.27688 2.00123 5.02439 2.05088 4.78064C2.06154 4.7283 2.07337 4.67644 2.08617 4.62493C2.09713 4.58082 2.10893 4.53707 2.12144 4.49361C2.1326 4.45488 2.14437 4.41644 2.15671 4.37824C2.16801 4.34328 2.1797 4.30847 2.192 4.27395C2.2034 4.24202 2.21506 4.21026 2.22727 4.17875C2.23866 4.14928 2.25044 4.1199 2.26257 4.09079C2.27402 4.06335 2.28577 4.03608 2.29783 4.00899C2.30932 3.98324 2.32109 3.95769 2.3331 3.93226C2.34458 3.90797 2.35642 3.88385 2.3684 3.85984C2.37991 3.83679 2.39168 3.81392 2.40367 3.79117C2.41521 3.76922 2.42698 3.74741 2.43893 3.72573C2.4505 3.70473 2.46225 3.68385 2.47423 3.66311C2.48583 3.64298 2.49752 3.6229 2.5095 3.60299C2.5211 3.58375 2.53287 3.56465 2.54479 3.54564C2.55633 3.52722 2.5682 3.50892 2.58006 3.49071C2.59169 3.47289 2.60341 3.45513 2.61533 3.43751C2.62704 3.42022 2.63864 3.40297 2.65062 3.38589C2.66219 3.3694 2.67406 3.35312 2.68589 3.33682C2.69755 3.32078 2.7093 3.30485 2.72119 3.28902C2.73288 3.27346 2.74453 3.25777 2.75645 3.24239C2.76805 3.22744 2.77992 3.21274 2.79172 3.19798C2.80338 3.18339 2.81513 3.16887 2.82702 3.15446C2.83871 3.14029 2.85039 3.12615 2.86229 3.11216C2.87391 3.09847 2.88575 3.08501 2.89758 3.0715C2.90927 3.0581 2.92096 3.04473 2.93285 3.03155C2.94448 3.01862 2.95631 3.00588 2.96812 2.99314C2.9798 2.98051 2.99155 2.96801 3.00341 2.95556C3.0151 2.9433 3.02682 2.93103 3.03868 2.91891C3.05034 2.907 3.06217 2.89526 3.07398 2.88353C3.08572 2.87186 3.09735 2.86009 3.10924 2.8486C3.12087 2.83734 3.13274 2.82635 3.14451 2.81524C3.15626 2.80416 3.16792 2.79305 3.17981 2.78215C3.19147 2.77146 3.2033 2.76097 3.21508 2.75043C3.22682 2.73994 3.23851 2.72943 3.25037 2.71909C3.26206 2.7089 3.27384 2.69889 3.28564 2.68885C3.29733 2.6789 3.30907 2.66895 3.32091 2.65915C3.33259 2.64946 3.3444 2.63987 3.3562 2.6303C3.36792 2.62083 3.37964 2.61144 3.39147 2.60211C3.40316 2.59288 3.41496 2.58376 3.42677 2.57467C3.43848 2.56567 3.45023 2.5567 3.46203 2.54784L3.4973 2.52176C3.50902 2.51318 3.52076 2.50465 3.5326 2.49622C3.54429 2.48787 3.55606 2.47961 3.56787 2.47142C3.57958 2.46325 3.59133 2.45514 3.60313 2.44712C3.61485 2.43919 3.62662 2.43137 3.63843 2.42356C3.65015 2.41581 3.66186 2.408 3.6737 2.40036C3.68538 2.39282 3.69719 2.38545 3.70899 2.37803C3.72074 2.37063 3.73243 2.36314 3.74426 2.3559C3.75592 2.34874 3.76775 2.34179 3.77953 2.33475C3.7913 2.32771 3.80296 2.32055 3.81482 2.31363C3.82648 2.30683 3.83835 2.30032 3.85009 2.29364C3.86187 2.28695 3.87355 2.28018 3.88539 2.27362C3.89708 2.26714 3.90888 2.2609 3.92066 2.25458C3.9324 2.24825 3.94412 2.24189 3.95592 2.23568C3.96764 2.22954 3.97941 2.22351 3.99122 2.21748L4.02649 2.19971C4.03823 2.19386 4.04998 2.18801 4.06178 2.18231C4.0735 2.17663 4.08527 2.17114 4.09705 2.16558C4.10883 2.16003 4.12048 2.15435 4.13232 2.14895C4.14401 2.14357 4.15584 2.13852 4.16761 2.13329C4.17936 2.12807 4.19108 2.12275 4.20288 2.11764C4.2146 2.11259 4.2264 2.10772 4.23818 2.10279L4.27345 2.08817L4.30871 2.07397L4.34401 2.06037C4.35578 2.05586 4.36744 2.05119 4.37928 2.0468C4.39096 2.04246 4.40283 2.03842 4.41457 2.0342C4.42632 2.02998 4.43804 2.02571 4.44984 2.02161L4.48511 2.00964L4.5204 1.99802C4.53215 1.99422 4.54387 1.99033 4.55567 1.98664C4.56736 1.98299 4.57919 1.97952 4.59094 1.97598C4.60271 1.97242 4.61443 1.96879 4.62624 1.96535C4.63795 1.96193 4.64973 1.95875 4.6615 1.95546L4.6968 1.94574C4.70854 1.94259 4.72026 1.93939 4.73207 1.93636C4.74378 1.93333 4.75559 1.93056 4.76733 1.92765C4.77908 1.92474 4.79083 1.92171 4.80263 1.91892C4.81435 1.91616 4.82615 1.91357 4.8379 1.91093L4.87319 1.90315C4.88494 1.90059 4.89666 1.89801 4.90846 1.8956C4.92018 1.89323 4.93198 1.89103 4.94373 1.88874C4.9555 1.88645 4.96722 1.88408 4.97902 1.88191C4.99077 1.87974 5.00252 1.87778 5.01429 1.87573L5.04959 1.86979C5.06133 1.86789 5.07305 1.86584 5.08486 1.86403C5.09657 1.86221 5.10838 1.8607 5.12012 1.85901C5.13187 1.85734 5.14362 1.85556 5.15542 1.85399L5.19069 1.8495L5.22598 1.84543C5.23776 1.84409 5.24945 1.84255 5.26125 1.84133C5.27297 1.84011 5.28477 1.83922 5.29652 1.83812L5.33181 1.83498C5.34356 1.83397 5.35531 1.83299 5.36708 1.83212C5.37883 1.83126 5.3906 1.83058 5.40238 1.82984C5.41415 1.82909 5.42587 1.82823 5.43765 1.82758C5.44936 1.82693 5.46114 1.82648 5.47291 1.82595L5.50821 1.82458C5.51996 1.82416 5.53167 1.82354 5.54348 1.82324C5.55519 1.82295 5.567 1.82298 5.57874 1.8228C5.59049 1.82262 5.60227 1.82241 5.61404 1.82235L5.62971 1.82214H5.64931H5.6846H5.71987H5.75514H5.79044H5.8257H5.861H5.89627H5.93153H5.96683H6.0021H6.03739H6.07266H6.10793H6.14323H6.17849H6.21379H6.24906H6.28432H6.31962H6.35489H6.39018H6.42545H6.46072H6.49602H6.53128H6.56658H6.60185H6.63711H6.67241H6.70768H6.74297H6.77824H6.81351H6.8488H6.88407H6.91934H6.95464H6.9899H7.0252H7.06047H7.09573H7.13103H7.1663H7.20159H7.23686H7.27213H7.30743H7.34269H7.37799H7.41326H7.44852H7.48382H7.51909H7.55438H7.58965H7.62492H7.66022H7.69548H7.73075H7.76605H7.80131H7.83661H7.87188H7.90717H7.94244H7.97771H8.013H8.04827H8.08354H8.11884H8.1541H8.1894H8.22467H8.25993H8.29523H8.3305H8.36579H8.40106H8.43633H8.47163H8.50689H8.54219H8.57746H8.61272H8.64802H8.68329H8.71855H8.75385H8.78912H8.82442H8.85968H8.89498H8.93025H8.96551H9.00081H9.03608H9.07137H9.10664H9.14191H9.17721H9.21247H9.24774H9.28304H9.3183H9.3536H9.38887H9.42416H9.45943H9.4947H9.53H9.56526H9.60053H9.63583H9.67109H9.70639H9.74166H9.77692H9.81222H9.84749H9.88276H9.91805H9.95332H9.98862H10.0239H10.0592H10.0944H10.1297H10.165H10.2003H10.2355H10.2708H10.3061H10.3414H10.3767H10.4119H10.4472H10.4825H10.5178H10.5531H10.5883H10.6236H10.6589H10.6942H10.7295H10.7647H10.8H10.8353H10.8706H10.9059H10.9411H10.9764H11.0064V20.3878C11.0064 20.5493 10.9961 20.7084 10.9764 20.8644C10.9669 20.9396 10.955 21.0139 10.9411 21.0876C10.9306 21.1436 10.9189 21.1992 10.9059 21.2543C10.8949 21.3008 10.8832 21.3469 10.8706 21.3926C10.8595 21.4327 10.8477 21.4726 10.8353 21.5121C10.8241 21.5479 10.8123 21.5835 10.8 21.6188C10.7887 21.6515 10.7769 21.6841 10.7647 21.7163C10.7533 21.7465 10.7416 21.7764 10.7295 21.8062C10.718 21.8342 10.7063 21.8621 10.6942 21.8898C10.6827 21.916 10.6709 21.9421 10.6589 21.9681C10.6474 21.9928 10.6356 22.0174 10.6236 22.0418C10.6121 22.0653 10.6003 22.0886 10.5883 22.1118C10.5768 22.1341 10.565 22.1563 10.5531 22.1783C10.5415 22.1996 10.5298 22.2209 10.5178 22.2419C10.5062 22.2622 10.4945 22.2824 10.4825 22.3025C10.471 22.322 10.4591 22.3412 10.4472 22.3604C10.4356 22.3791 10.4239 22.3977 10.4119 22.4162C10.4003 22.4343 10.3886 22.4524 10.3767 22.4702C10.3651 22.4876 10.3533 22.5048 10.3414 22.5219C10.3298 22.5386 10.318 22.5552 10.3061 22.5717C10.2945 22.588 10.2827 22.6041 10.2708 22.6202C10.2592 22.6359 10.2474 22.6514 10.2355 22.6669C10.2239 22.682 10.2121 22.697 10.2003 22.7119C10.1886 22.7267 10.1769 22.7415 10.165 22.756C10.1534 22.7702 10.1415 22.7843 10.1297 22.7983C10.1181 22.8122 10.1063 22.8259 10.0944 22.8396C10.0827 22.8531 10.0711 22.8666 10.0592 22.8799C10.0476 22.8929 10.0357 22.9057 10.0239 22.9186C10.0122 22.9313 10.0005 22.9441 9.98862 22.9566C9.97696 22.969 9.96515 22.9811 9.95332 22.9933C9.94163 23.0053 9.92992 23.0173 9.91805 23.0291C9.90636 23.0409 9.89462 23.0525 9.88276 23.0641C9.8711 23.0755 9.85929 23.0867 9.84749 23.0979C9.83577 23.1091 9.82408 23.1203 9.81222 23.1312C9.80056 23.142 9.78873 23.1526 9.77692 23.1632C9.76518 23.1738 9.75355 23.1845 9.74166 23.195C9.73003 23.2052 9.71814 23.2151 9.70639 23.2252C9.69464 23.2353 9.68296 23.2455 9.67109 23.2554C9.65944 23.2651 9.6476 23.2747 9.63583 23.2842C9.62408 23.2938 9.61239 23.3034 9.60053 23.3129C9.58887 23.3221 9.57704 23.3312 9.56526 23.3403C9.55352 23.3494 9.54186 23.3585 9.53 23.3674C9.51834 23.3763 9.50647 23.3849 9.4947 23.3936C9.48295 23.4022 9.47129 23.4109 9.45943 23.4195C9.44777 23.4278 9.43594 23.436 9.42416 23.4443C9.41239 23.4525 9.40073 23.4609 9.38887 23.469C9.37721 23.4769 9.36538 23.4847 9.3536 23.4925C9.34183 23.5004 9.33017 23.5084 9.3183 23.5161C9.30665 23.5237 9.29478 23.5309 9.28304 23.5384C9.27129 23.5459 9.2596 23.5534 9.24774 23.5607C9.23605 23.568 9.22422 23.575 9.21247 23.582C9.20073 23.5891 9.18904 23.5962 9.17721 23.6032C9.16549 23.61 9.15371 23.6168 9.14191 23.6235C9.13019 23.6302 9.11845 23.6369 9.10664 23.6435C9.09492 23.65 9.08318 23.6565 9.07137 23.6629L9.03608 23.6818C9.02433 23.688 9.01261 23.6942 9.00081 23.7003C8.98909 23.7063 8.97732 23.7122 8.96551 23.7181C8.95377 23.724 8.94208 23.73 8.93025 23.7358C8.91856 23.7415 8.90673 23.7469 8.89498 23.7525C8.8832 23.7581 8.87152 23.7638 8.85968 23.7692C8.848 23.7746 8.83616 23.7798 8.82442 23.7851L8.78912 23.8007L8.75385 23.8159C8.74214 23.8209 8.73033 23.8257 8.71855 23.8305C8.70681 23.8354 8.69509 23.8403 8.68329 23.845C8.6716 23.8497 8.6598 23.8541 8.64802 23.8586C8.63625 23.8632 8.62456 23.8678 8.61272 23.8722C8.60101 23.8766 8.58923 23.8808 8.57746 23.8851L8.54219 23.8977L8.50689 23.9099C8.49518 23.9139 8.48337 23.9177 8.47163 23.9216C8.45985 23.9254 8.44816 23.9294 8.43633 23.9332C8.42464 23.9369 8.41281 23.9403 8.40106 23.9439L8.36579 23.9545L8.3305 23.9647C8.31878 23.968 8.30701 23.9712 8.29523 23.9744C8.28346 23.9776 8.27174 23.981 8.25993 23.984C8.24825 23.9871 8.23638 23.9898 8.22467 23.9928C8.21292 23.9957 8.20118 23.9987 8.1894 24.0015L8.1541 24.0097L8.11884 24.0176C8.10706 24.0201 8.09537 24.0229 8.08354 24.0254C8.07182 24.0278 8.06002 24.0299 8.04827 24.0322C8.03653 24.0345 8.02478 24.0369 8.013 24.0391L7.97771 24.0455C7.96599 24.0476 7.95422 24.0495 7.94244 24.0514C7.93067 24.0534 7.91895 24.0555 7.90717 24.0574C7.89546 24.0592 7.88365 24.0607 7.87188 24.0625L7.83661 24.0675C7.82486 24.0691 7.81312 24.0707 7.80131 24.0722C7.7896 24.0737 7.77779 24.0749 7.76605 24.0763C7.75427 24.0777 7.74255 24.0792 7.73075 24.0804C7.71903 24.0817 7.70726 24.0827 7.69548 24.0839L7.66022 24.087C7.64844 24.088 7.63672 24.0893 7.62492 24.0902C7.6132 24.0911 7.6014 24.0917 7.58965 24.0924L7.55438 24.0947L7.51909 24.0966C7.50737 24.0972 7.49557 24.0975 7.48382 24.098C7.47205 24.0984 7.4603 24.099 7.44852 24.0993C7.43681 24.0997 7.425 24.0998 7.41326 24.1L7.37799 24.1005C7.36709 24.1005 7.35623 24.1009 7.34527 24.1009H7.34269H7.30743H7.27213H7.23686H7.20159H7.1663H7.13103H7.09573H7.06047H7.0252H6.9899H6.95464H6.91934H6.88407H6.8488H6.81351H6.77824H6.74297H6.70768H6.67241H6.63711H6.60185H6.56658H6.53128H6.49602H6.46072H6.42545H6.39018H6.35489H6.31962H6.28432H6.24906H6.21379H6.17849H6.14323H6.10793H6.07266H6.03739H6.0021H5.96683H5.93153H5.89627H5.861H5.8257H5.79044H5.75514H5.71987H5.6846H5.64931H5.61404H5.57874H5.54348H5.50821H5.47291H5.43765H5.40238H5.36708H5.33181H5.29652H5.26125H5.22598H5.19069H5.15542H5.12012H5.08486H5.04959H5.01429H4.97902H4.94373H4.90846H4.87319H4.8379H4.80263H4.76733H4.73207H4.6968H4.6615H4.62624H4.59094H4.55567H4.5204H4.48511H4.44984H4.41457H4.37928H4.34401H4.30871H4.27345H4.23818H4.20288H4.16761H4.13232H4.09705H4.06178H4.02649H3.99122H3.95592H3.92066H3.88539H3.85009H3.81482H3.77953H3.74426H3.70899H3.6737H3.63843H3.60313H3.56787H3.5326H3.4973H3.46203H3.42677H3.39147H3.3562H3.32091H3.28564H3.25037H3.21508H3.17981H3.14451H3.10924H3.07398H3.03868H3.00341H2.96812H2.93285H2.89758H2.86229H2.82702H2.79172H2.75645H2.72119H2.68589H2.65062H2.61533H2.58006H2.54479H2.5095H2.47423H2.43893H2.40367H2.3684H2.3331H2.29783H2.26257H2.22727H2.192H2.15671H2.12144H2.08617H2.05088H1.9751V16.2757C1.9751 16.2757 2.00117 16.2829 2.05088 16.2956L2.08617 16.3046L2.12144 16.3133L2.15671 16.3219L2.192 16.3304L2.22727 16.3387L2.26257 16.3469L2.29783 16.355L2.3331 16.3629L2.3684 16.3708L2.40367 16.3785L2.43893 16.3862L2.47423 16.3937L2.5095 16.4012L2.54479 16.4085L2.58006 16.4157L2.61533 16.4229L2.65062 16.4299L2.68589 16.4369L2.72119 16.4438L2.75645 16.4506L2.79172 16.4573L2.82702 16.4639L2.86229 16.4705L2.89758 16.4769L2.93285 16.4833L2.96812 16.4896L3.00341 16.4958L3.03868 16.5019L3.07398 16.5079L3.10924 16.5138L3.14451 16.5197L3.17981 16.5255L3.21508 16.5312L3.25037 16.5368L3.28564 16.5424L3.32091 16.5479L3.3562 16.5533L3.39147 16.5586L3.42677 16.5638L3.46203 16.569L3.4973 16.5741L3.5326 16.5791L3.56787 16.584L3.60313 16.5889L3.63843 16.5936L3.6737 16.5983L3.70899 16.6029L3.74426 16.6074L3.77953 16.6119L3.81482 16.6163L3.85009 16.6206L3.88539 16.6248L3.92066 16.629L3.95592 16.6331L3.99122 16.6371L4.02649 16.641L4.06178 16.6448L4.09705 16.6487L4.13232 16.6523L4.16761 16.656L4.20288 16.6595L4.23818 16.6629L4.27345 16.6664L4.30871 16.6696L4.34401 16.6729L4.37928 16.676L4.41457 16.6791L4.44984 16.6821L4.48511 16.685L4.5204 16.6879L4.55567 16.6906L4.59094 16.6933L4.62624 16.6959L4.6615 16.6984L4.6968 16.7009L4.73207 16.7032L4.76733 16.7056L4.80263 16.7078L4.8379 16.7099L4.87319 16.712L4.90846 16.7139L4.94373 16.7158L4.97902 16.7177L5.01429 16.7194L5.04959 16.7211L5.08486 16.7226L5.12012 16.7241L5.15542 16.7256L5.19069 16.7268L5.22598 16.7281L5.26125 16.7293L5.29652 16.7303L5.33181 16.7314L5.36708 16.7323L5.40238 16.7331L5.43765 16.7339L5.47291 16.7345L5.50821 16.7351L5.54348 16.7357L5.57874 16.736L5.61404 16.7364L5.64931 16.7367L5.6846 16.7368L5.71987 16.7369L5.73349 16.7369L5.75514 16.7368L5.79044 16.7366L5.8257 16.7364L5.861 16.7362L5.89627 16.736L5.93153 16.7353L5.96683 16.7346L6.0021 16.734L6.03739 16.7333L6.07266 16.7324L6.10793 16.7313L6.14323 16.7302L6.17849 16.7291L6.21379 16.7279L6.24906 16.7264L6.28432 16.7248L6.31962 16.7232L6.35489 16.7216L6.39018 16.7196L6.42545 16.7176L6.46072 16.7155L6.49602 16.7134L6.53128 16.711L6.56658 16.7084L6.60185 16.7059L6.63711 16.7033L6.67241 16.7005L6.70768 16.6974L6.74297 16.6943L6.77824 16.6912L6.81351 16.6878L6.8488 16.6841L6.88407 16.6805L6.91934 16.6769L6.95464 16.6729L6.9899 16.6687L7.0252 16.6645L7.06047 16.6603L7.09573 16.6556L7.13103 16.6508L7.1663 16.6461L7.20159 16.6412C7.21349 16.6395 7.22506 16.6376 7.23686 16.6358L7.27213 16.6304L7.30743 16.625L7.34269 16.6194C7.35456 16.6174 7.36618 16.6153 7.37799 16.6133L7.41326 16.6073C7.42494 16.6053 7.43692 16.6034 7.44852 16.6013C7.46042 16.5992 7.47199 16.5969 7.48382 16.5947L7.51909 16.588L7.55438 16.5813L7.58965 16.5743C7.60152 16.5719 7.61314 16.5694 7.62492 16.5669L7.66022 16.5596L7.69548 16.5521C7.7074 16.5495 7.71895 16.5467 7.73075 16.544L7.76605 16.536C7.77773 16.5332 7.78971 16.5307 7.80131 16.5279C7.81324 16.5251 7.82481 16.5221 7.83661 16.5192L7.87188 16.5103C7.88359 16.5074 7.89555 16.5046 7.90717 16.5016C7.91904 16.4985 7.9307 16.4953 7.94244 16.4922L7.97771 16.4826C7.98945 16.4794 8.00138 16.4763 8.013 16.473C8.02487 16.4697 8.03653 16.4663 8.04827 16.4629L8.08354 16.4525C8.09529 16.449 8.10721 16.4457 8.11884 16.4421L8.1541 16.4312L8.1894 16.4199C8.20112 16.4162 8.21307 16.4125 8.22467 16.4087L8.25993 16.3968L8.29523 16.3847C8.30695 16.3806 8.31893 16.3767 8.3305 16.3726C8.34242 16.3683 8.35399 16.3639 8.36579 16.3596L8.40106 16.3465C8.41281 16.3421 8.4247 16.3378 8.43633 16.3333C8.44825 16.3287 8.45985 16.324 8.47163 16.3193C8.4834 16.3146 8.49526 16.31 8.50689 16.3053L8.54219 16.2907L8.57746 16.2757C8.58917 16.2707 8.60115 16.2658 8.61272 16.2607C8.62468 16.2554 8.63622 16.2499 8.64802 16.2446L8.68329 16.2285L8.71855 16.2119C8.73042 16.2062 8.74214 16.2004 8.75385 16.1947C8.7656 16.1889 8.77755 16.1832 8.78912 16.1773C8.80107 16.1713 8.81264 16.165 8.82442 16.1589C8.83619 16.1528 8.84808 16.1467 8.85968 16.1405C8.8716 16.1342 8.88323 16.1277 8.89498 16.1212C8.90681 16.1147 8.91859 16.1082 8.93025 16.1016C8.94211 16.0948 8.95386 16.0881 8.96551 16.0813C8.97741 16.0744 8.98912 16.0673 9.00081 16.0603C9.01261 16.0532 9.02445 16.0461 9.03608 16.0389C9.048 16.0315 9.05966 16.024 9.07137 16.0165C9.08318 16.009 9.09504 16.0015 9.10664 15.9939C9.11856 15.986 9.13019 15.978 9.14191 15.97C9.15371 15.9619 9.16561 15.954 9.17721 15.9459C9.18916 15.9375 9.20076 15.9289 9.21247 15.9205C9.22428 15.9119 9.23617 15.9033 9.24774 15.8946C9.25969 15.8857 9.27135 15.8766 9.28304 15.8676C9.2949 15.8584 9.3067 15.8492 9.3183 15.8399C9.3302 15.8303 9.34194 15.8207 9.3536 15.811C9.36549 15.8011 9.37724 15.7911 9.38887 15.7811C9.40073 15.7709 9.41259 15.7607 9.42416 15.7503C9.43614 15.7396 9.44774 15.7287 9.45943 15.7179C9.47127 15.7069 9.48316 15.696 9.4947 15.6848C9.50668 15.6733 9.51837 15.6616 9.53 15.6499C9.54192 15.6379 9.55366 15.6258 9.56526 15.6136C9.57713 15.6012 9.58902 15.5888 9.60053 15.5762C9.61254 15.5631 9.62417 15.5498 9.63583 15.5364C9.64781 15.5227 9.65952 15.5089 9.67109 15.4951C9.68301 15.4808 9.69488 15.4665 9.70639 15.452C9.71834 15.4369 9.73015 15.4218 9.74166 15.4066C9.7537 15.3907 9.76535 15.3746 9.77692 15.3584C9.78896 15.3416 9.80068 15.3246 9.81222 15.3076C9.82426 15.2898 9.83601 15.2719 9.84749 15.2539C9.85953 15.235 9.8713 15.216 9.88276 15.1968C9.89482 15.1765 9.90663 15.1562 9.91805 15.1356C9.93018 15.1138 9.94193 15.0919 9.95332 15.0698C9.9655 15.0462 9.97725 15.0224 9.98862 14.9984C10.0009 14.9726 10.0126 14.9466 10.0239 14.9204C10.0362 14.892 10.048 14.8633 10.0592 14.8344C10.0715 14.8026 10.0833 14.7704 10.0944 14.738C10.107 14.7012 10.1187 14.6641 10.1297 14.6266C10.1425 14.5828 10.1543 14.5386 10.165 14.494C10.1783 14.4386 10.1901 14.3826 10.2003 14.3259C10.2154 14.2416 10.2271 14.1559 10.2355 14.0691C10.2474 13.9481 10.2532 13.8249 10.2532 13.6997V9.39152H10.2355H10.2003H10.165H10.1297H10.0944H10.0592H10.0239H9.98862H9.95332H9.91805H9.88276H9.84749H9.81222H9.77692H9.74166H9.70639H9.67109H9.63583H9.60053H9.56526H9.53H9.4947H9.45943H9.42416H9.38887H9.3536H9.3183H9.28304H9.24774H9.21247H9.17721H9.14191H9.10664H9.07137H9.03608H9.00081H8.96551H8.93025H8.89498H8.85968H8.82442H8.78912H8.75385H8.71855H8.68329H8.64802H8.61272H8.57746H8.54219H8.50689H8.47163H8.43633H8.40106H8.36579H8.3305H8.29523H8.25993H8.22467H8.1894H8.1541H8.11884H8.08354H8.04827H8.013H7.97771H7.94244H7.90717H7.87188H7.83661H7.80131H7.76605H7.73075H7.69548H7.66022H7.62492H7.58965H7.55438H7.51909H7.48382H7.44852H7.41326H7.37799H7.34269H7.30743H7.27213H7.23686H7.20159H7.1663H7.13103H7.10429V13.6997C7.10429 13.7671 7.10139 13.8335 7.09573 13.8986C7.08853 13.9815 7.07672 14.0623 7.06047 14.1409C7.05042 14.1894 7.03864 14.2371 7.0252 14.2838C7.01448 14.3211 7.00276 14.3578 6.9899 14.3938C6.97895 14.4245 6.96714 14.4546 6.95464 14.4844C6.94348 14.511 6.93173 14.5371 6.91934 14.5629C6.90806 14.5864 6.89637 14.6096 6.88407 14.6323C6.87277 14.6533 6.86093 14.6739 6.8488 14.6942C6.83741 14.7134 6.82566 14.7323 6.81351 14.7509C6.80208 14.7684 6.79031 14.7856 6.77824 14.8026C6.76676 14.8188 6.75507 14.8349 6.74297 14.8507C6.73149 14.8656 6.71969 14.8803 6.70768 14.8949C6.69617 14.9088 6.68442 14.9225 6.67241 14.9361C6.66087 14.9492 6.64912 14.9621 6.63711 14.9748C6.62554 14.987 6.61383 14.9991 6.60185 15.011C6.59028 15.0225 6.57853 15.0339 6.56658 15.0451C6.55501 15.0559 6.5432 15.0665 6.53128 15.077C6.51971 15.0872 6.50794 15.0973 6.49602 15.1072C6.48442 15.1168 6.47261 15.1263 6.46072 15.1356C6.44912 15.1447 6.43734 15.1537 6.42545 15.1626C6.41382 15.1712 6.40208 15.1797 6.39018 15.188C6.37856 15.1962 6.36681 15.2042 6.35489 15.2121C6.34326 15.2199 6.33151 15.2275 6.31962 15.2349C6.30799 15.2422 6.29622 15.2494 6.28432 15.2565C6.27269 15.2634 6.26092 15.2702 6.24906 15.2769C6.23743 15.2835 6.22565 15.2899 6.21379 15.2962C6.20213 15.3025 6.19038 15.3085 6.17849 15.3145C6.16683 15.3204 6.15509 15.3262 6.14323 15.3319C6.13154 15.3375 6.11982 15.3431 6.10793 15.3484C6.09624 15.3537 6.08452 15.359 6.07266 15.364C6.06103 15.369 6.04923 15.3738 6.03739 15.3786C6.02574 15.3833 6.01393 15.3879 6.0021 15.3925C5.99041 15.3969 5.97869 15.4013 5.96683 15.4056C5.95514 15.4098 5.9434 15.414 5.93153 15.418C5.91988 15.4219 5.9081 15.4258 5.89627 15.4296C5.88461 15.4333 5.8728 15.4368 5.861 15.4404C5.84931 15.4439 5.83754 15.4473 5.8257 15.4506C5.81399 15.4539 5.80227 15.4572 5.79044 15.4603C5.77875 15.4633 5.76697 15.4663 5.75514 15.4692C5.74348 15.472 5.73171 15.4747 5.71987 15.4774C5.70818 15.4801 5.69644 15.4827 5.6846 15.4852C5.67289 15.4876 5.66117 15.49 5.64931 15.4923C5.63762 15.4946 5.62585 15.4967 5.61404 15.4988C5.60232 15.5009 5.59058 15.503 5.57874 15.5049L5.54348 15.5104C5.53179 15.5121 5.52001 15.5137 5.50821 15.5152C5.49649 15.5168 5.48478 15.5183 5.47291 15.5197L5.43765 15.5237C5.42596 15.5249 5.41418 15.526 5.40238 15.5271C5.39063 15.5282 5.37892 15.5293 5.36708 15.5302C5.35539 15.5311 5.34362 15.5319 5.33181 15.5327C5.3201 15.5335 5.30832 15.5341 5.29652 15.5347C5.28477 15.5354 5.27308 15.536 5.26125 15.5365C5.24956 15.5369 5.23776 15.5372 5.22598 15.5376L5.19069 15.5384C5.179 15.5386 5.16722 15.5387 5.15542 15.5388L5.14215 15.5389L5.12012 15.5388L5.08486 15.5385L5.04959 15.538L5.01429 15.5373L4.97902 15.5363L4.94373 15.5352L4.90846 15.5337L4.87319 15.5321L4.8379 15.5303L4.80263 15.5281L4.76733 15.5258L4.73207 15.5233L4.6968 15.5205L4.6615 15.5175L4.62624 15.5143L4.59094 15.5109L4.55567 15.5072L4.5204 15.5033L4.48511 15.4992L4.44984 15.4949L4.41457 15.4904L4.37928 15.4857L4.34401 15.4807L4.30871 15.4755L4.27345 15.4701L4.23818 15.4646L4.20288 15.4587L4.16761 15.4527L4.13232 15.4465L4.09705 15.44L4.06178 15.4334L4.02649 15.4266L3.99122 15.4196L3.95592 15.4123L3.92066 15.4048L3.88539 15.3972L3.85009 15.3893L3.81482 15.3812L3.77953 15.373L3.74426 15.3645L3.70899 15.3559L3.6737 15.347L3.63843 15.338L3.60313 15.3287L3.56787 15.3192L3.5326 15.3096L3.4973 15.2998L3.46203 15.2898L3.42677 15.2796L3.39147 15.2692L3.3562 15.2586L3.32091 15.2478L3.28564 15.2369L3.25037 15.2257L3.21508 15.2144L3.17981 15.2029L3.14451 15.1912L3.10924 15.1793L3.07398 15.1672L3.03868 15.155L3.00341 15.1426L2.96812 15.1299L2.93285 15.1171L2.89758 15.1042L2.86229 15.0911L2.82702 15.0777L2.79172 15.0643L2.75645 15.0506L2.72119 15.0368L2.68589 15.0228L2.65062 15.0086L2.61533 14.9943L2.58006 14.9798L2.54479 14.9651L2.5095 14.9503L2.47423 14.9353L2.43893 14.9201L2.40367 14.9048L2.3684 14.8893L2.3331 14.8736L2.29783 14.8578L2.26257 14.8418L2.22727 14.8257L2.192 14.8094L2.15671 14.7929L2.12144 14.7763L2.08617 14.7595L2.05088 14.7426V14.7426Z" fill="url(#paint1_linear_48:726)"/>
<path fill-rule="evenodd" clip-rule="evenodd" d="M12.1807 10.3329C12.155 10.354 12.1297 10.3752 12.105 10.3968V5.53554C12.105 5.27703 12.1311 5.02469 12.1807 4.78103C12.1914 4.72872 12.2032 4.67689 12.216 4.62541C12.227 4.58124 12.2388 4.53743 12.2513 4.49391C12.2625 4.45514 12.2742 4.41665 12.2866 4.37842C12.2979 4.34349 12.3096 4.30873 12.3219 4.27428C12.3332 4.24234 12.3449 4.21056 12.3572 4.17904C12.3686 4.14958 12.3803 4.12026 12.3924 4.09115C12.4039 4.0637 12.4156 4.03644 12.4277 4.00932C12.4391 3.98356 12.451 3.95799 12.463 3.93256C12.4745 3.90826 12.4863 3.8842 12.4983 3.8602C12.5098 3.83715 12.5216 3.81428 12.5335 3.7915C12.5451 3.76954 12.5569 3.74774 12.5688 3.72606C12.5804 3.70506 12.5921 3.68415 12.6041 3.66341C12.6157 3.64327 12.6274 3.62322 12.6394 3.60332C12.6509 3.5841 12.6627 3.565 12.6746 3.54602C12.6862 3.52755 12.6981 3.50928 12.7099 3.49104C12.7216 3.47319 12.7333 3.45545 12.7452 3.43784C12.7569 3.42055 12.7686 3.40326 12.7805 3.38621C12.7921 3.3697 12.8039 3.35345 12.8158 3.33717C12.8274 3.32113 12.8392 3.30518 12.8511 3.28935C12.8628 3.27375 12.8744 3.25813 12.8863 3.24274C12.8979 3.2278 12.9098 3.21307 12.9216 3.1983C12.9333 3.18372 12.945 3.16919 12.9569 3.15482C12.9686 3.14062 12.9803 3.12648 12.9922 3.11249C13.0038 3.09883 13.0157 3.08534 13.0275 3.07185C13.0392 3.05849 13.0509 3.04506 13.0628 3.03184C13.0744 3.01892 13.0862 3.00615 13.098 2.99341C13.1097 2.98081 13.1214 2.96831 13.1333 2.95586C13.145 2.94359 13.1567 2.93132 13.1686 2.91921C13.1802 2.90732 13.192 2.89559 13.2038 2.88386C13.2156 2.87218 13.2272 2.86042 13.2391 2.8489C13.2508 2.83764 13.2626 2.82665 13.2744 2.81554C13.2861 2.80446 13.2978 2.79335 13.3097 2.78245C13.3213 2.77175 13.3332 2.76124 13.345 2.75069C13.3567 2.74018 13.3684 2.72969 13.3803 2.71936C13.3919 2.70917 13.4037 2.69916 13.4155 2.68912C13.4272 2.67917 13.439 2.66922 13.4508 2.65938C13.4625 2.6497 13.4743 2.64011 13.4861 2.63057C13.4978 2.62109 13.5095 2.61168 13.5214 2.60235C13.5331 2.59314 13.5448 2.58402 13.5567 2.57493C13.5684 2.56593 13.5801 2.55696 13.5919 2.54811C13.6036 2.53932 13.6154 2.53065 13.6272 2.522C13.6389 2.51345 13.6507 2.50489 13.6625 2.49646C13.6742 2.48811 13.686 2.47988 13.6978 2.47165C13.7095 2.46348 13.7212 2.45535 13.733 2.44733C13.7447 2.43939 13.7565 2.43158 13.7683 2.42377C13.7801 2.41599 13.7918 2.40821 13.8036 2.40057C13.8153 2.39303 13.8271 2.38566 13.8389 2.37823C13.8507 2.37084 13.8623 2.36335 13.8742 2.3561C13.8859 2.34892 13.8977 2.34197 13.9095 2.33493C13.9212 2.32789 13.9329 2.3207 13.9447 2.31381C13.9564 2.307 13.9683 2.30047 13.98 2.29379C13.9918 2.2871 14.0035 2.28036 14.0153 2.27382C14.027 2.26735 14.0388 2.26111 14.0506 2.25475C14.0623 2.24843 14.074 2.24207 14.0859 2.23586L14.1211 2.21765L14.1564 2.19986C14.1681 2.19404 14.1799 2.18816 14.1917 2.18245C14.2034 2.17678 14.2152 2.17129 14.227 2.16573C14.2388 2.16021 14.2504 2.1545 14.2623 2.1491C14.2739 2.14372 14.2858 2.13867 14.2976 2.13344C14.3093 2.12821 14.321 2.1229 14.3328 2.11779C14.3445 2.11274 14.3563 2.10784 14.3681 2.10291L14.4034 2.08829C14.4151 2.08351 14.4268 2.07873 14.4387 2.07406C14.4504 2.06943 14.4622 2.06497 14.474 2.06046C14.4857 2.05594 14.4974 2.05128 14.5092 2.04688C14.5209 2.04255 14.5328 2.03851 14.5445 2.03429C14.5563 2.03007 14.568 2.02579 14.5798 2.0217C14.5915 2.0176 14.6033 2.01368 14.6151 2.00972L14.6503 1.99811C14.6621 1.99431 14.6738 1.99042 14.6856 1.9867C14.6973 1.98305 14.7092 1.9796 14.7209 1.97607C14.7327 1.97251 14.7444 1.96885 14.7562 1.96541C14.7679 1.96199 14.7797 1.95881 14.7915 1.95551L14.8267 1.9458C14.8385 1.94265 14.8502 1.93944 14.862 1.93642C14.8738 1.93342 14.8856 1.93059 14.8973 1.92768C14.909 1.92477 14.9208 1.92174 14.9326 1.91895C14.9443 1.91619 14.9561 1.9136 14.9679 1.91096L15.0032 1.90318C15.0149 1.90065 15.0266 1.89804 15.0384 1.89563C15.0501 1.89323 15.062 1.89106 15.0737 1.88877C15.0855 1.88648 15.0972 1.88408 15.109 1.88191L15.1443 1.87573L15.1796 1.86982C15.1913 1.86789 15.2031 1.86584 15.2149 1.86403C15.2266 1.86221 15.2384 1.8607 15.2501 1.85901C15.2619 1.85734 15.2736 1.85559 15.2854 1.85402L15.3207 1.84953L15.356 1.84543C15.3677 1.84409 15.3794 1.84255 15.3913 1.84133C15.403 1.84011 15.4148 1.83922 15.4265 1.83812L15.4618 1.83498C15.4736 1.83397 15.4853 1.83299 15.4971 1.83212C15.5088 1.83126 15.5206 1.83058 15.5323 1.82984C15.5441 1.82909 15.5558 1.82823 15.5676 1.82758C15.5794 1.82693 15.5912 1.82648 15.6029 1.82595L15.6382 1.82458C15.65 1.82416 15.6617 1.82354 15.6735 1.82324C15.6852 1.82295 15.697 1.82298 15.7088 1.8228C15.7205 1.82262 15.7323 1.82241 15.7441 1.82235L15.7596 1.82214H15.7793H15.8146H15.8499H15.8852H15.9205H15.9557H15.991H16.0263H16.0616H16.0969H16.1322H16.1674H16.2027H16.238H16.2733H16.3086H16.3438H16.3791H16.4144H16.4496H16.4849H16.5202H16.5555H16.5908H16.6261H16.6614H16.6966H16.7319H16.7672H16.8025H16.8378H16.873H16.9083H16.9436H16.9789H17.0142H17.0494H17.0847H17.12H17.1553H17.1906H17.2259H17.2611H17.2964H17.3317H17.367H17.4022H17.4375H17.4728H17.5081H17.5434H17.5786H17.6139H17.6492H17.6845H17.7198H17.7551H17.7903H17.8256H17.8609H17.8962H17.9315H17.9667H18.002H18.0373H18.0726H18.1079H18.1432H18.1784H18.2137H18.249H18.2843H18.3195H18.3548H18.3901H18.4254H18.4607H18.4959H18.5312H18.5665H18.6018H18.6371H18.6723H18.7076H18.7429H18.7782H18.8135H18.8488H18.884H18.9193H18.9546H18.9899H19.0252H19.0605H19.0957H19.131H19.1663H19.2016H19.2368H19.2721H19.3074H19.3427H19.378H19.4132H19.4485H19.4838H19.5191H19.5544H19.5896H19.6249H19.6602H19.6955H19.7308H19.7661H19.8013H19.8366H19.8719H19.9072H19.9425H19.9778H20.013H20.0483H20.0836H20.1189H20.1541H20.1894H20.2247H20.26H20.2953H20.3305H20.3658H20.4011H20.4364H20.4717H20.5069H20.5422H20.5775H20.6128H20.6481H20.6833H20.7186H20.7539H20.7892H20.8245H20.8598H20.895H20.9303H20.9656H21.0009H21.0362H21.0714H21.1067H21.1366V20.3878C21.1366 20.5492 21.1264 20.7082 21.1067 20.8642C21.0972 20.9393 21.0853 21.0136 21.0714 21.0873C21.0609 21.1433 21.0492 21.199 21.0362 21.2541C21.0252 21.3005 21.0135 21.3466 21.0009 21.3924C20.9898 21.4325 20.978 21.4724 20.9656 21.5119C20.9544 21.5477 20.9426 21.5833 20.9303 21.6186C20.919 21.6513 20.9072 21.6838 20.895 21.7161C20.8836 21.7463 20.8719 21.7762 20.8598 21.8059C20.8483 21.834 20.8366 21.8619 20.8245 21.8896C20.813 21.9158 20.8012 21.9419 20.7892 21.9678C20.7777 21.9926 20.7659 22.0172 20.7539 22.0416C20.7424 22.0651 20.7306 22.0884 20.7186 22.1116C20.7071 22.1339 20.6953 22.1561 20.6833 22.1782C20.6717 22.1995 20.6601 22.2207 20.6481 22.2418C20.6365 22.2621 20.6247 22.2822 20.6128 22.3023C20.6012 22.3217 20.5894 22.341 20.5775 22.3602C20.5659 22.3789 20.5542 22.3975 20.5422 22.416C20.5306 22.4341 20.5189 22.4522 20.5069 22.4701C20.4953 22.4874 20.4835 22.5045 20.4717 22.5217C20.4601 22.5384 20.4483 22.555 20.4364 22.5715C20.4247 22.5877 20.413 22.604 20.4011 22.62C20.3895 22.6357 20.3777 22.6512 20.3658 22.6666C20.3542 22.6818 20.3424 22.6968 20.3305 22.7117C20.3189 22.7265 20.3072 22.7412 20.2953 22.7558C20.2836 22.77 20.2718 22.7841 20.26 22.7982C20.2483 22.812 20.2366 22.8257 20.2247 22.8394C20.213 22.8529 20.2013 22.8664 20.1894 22.8797C20.1778 22.8927 20.1659 22.9055 20.1541 22.9184C20.1424 22.9311 20.1307 22.9439 20.1189 22.9565C20.1072 22.9688 20.0954 22.9809 20.0836 22.9931C20.0719 23.0051 20.0602 23.0171 20.0483 23.0289C20.0366 23.0407 20.0249 23.0523 20.013 23.0639C20.0014 23.0753 19.9896 23.0865 19.9778 23.0977C19.966 23.1089 19.9543 23.1201 19.9425 23.1311C19.9308 23.1419 19.919 23.1525 19.9072 23.1631C19.8954 23.1737 19.8838 23.1844 19.8719 23.1948C19.8602 23.2051 19.8484 23.215 19.8366 23.2251C19.8248 23.2352 19.8132 23.2453 19.8013 23.2552C19.7897 23.265 19.7778 23.2744 19.7661 23.284C19.7543 23.2936 19.7426 23.3033 19.7308 23.3127C19.7191 23.3219 19.7073 23.331 19.6955 23.3401C19.6838 23.3492 19.6721 23.3583 19.6602 23.3673C19.6485 23.3761 19.6367 23.3847 19.6249 23.3934C19.6132 23.4021 19.6015 23.4108 19.5896 23.4193C19.578 23.4277 19.5661 23.4359 19.5544 23.4441C19.5426 23.4524 19.5309 23.4607 19.5191 23.4688C19.5074 23.4768 19.4956 23.4845 19.4838 23.4924C19.4721 23.5002 19.4604 23.5082 19.4485 23.5159C19.4369 23.5235 19.425 23.5308 19.4132 23.5383C19.4015 23.5457 19.3898 23.5533 19.378 23.5606C19.3663 23.5678 19.3545 23.5748 19.3427 23.5819C19.3309 23.589 19.3192 23.5961 19.3074 23.603C19.2957 23.6099 19.2839 23.6166 19.2721 23.6234L19.2368 23.6434L19.2016 23.6628L19.1663 23.6816C19.1545 23.6878 19.1428 23.6941 19.131 23.7002C19.1193 23.7062 19.1075 23.712 19.0957 23.718C19.084 23.7239 19.0723 23.7299 19.0605 23.7357C19.0488 23.7414 19.0369 23.7468 19.0252 23.7524C19.0134 23.758 19.0017 23.7637 18.9899 23.7691C18.9782 23.7745 18.9663 23.7797 18.9546 23.785L18.9193 23.8006L18.884 23.8158L18.8488 23.8304C18.837 23.8353 18.8253 23.8402 18.8135 23.8449C18.8018 23.8496 18.7899 23.854 18.7782 23.8585C18.7664 23.8631 18.7547 23.8677 18.7429 23.8721C18.7312 23.8765 18.7194 23.8807 18.7076 23.885L18.6723 23.8976L18.6371 23.9098C18.6254 23.9138 18.6135 23.9176 18.6018 23.9215C18.59 23.9253 18.5783 23.9294 18.5665 23.9331C18.5548 23.9368 18.543 23.9402 18.5312 23.9438L18.4959 23.9544L18.4607 23.9646C18.4489 23.9679 18.4372 23.9711 18.4254 23.9743C18.4136 23.9775 18.4019 23.9809 18.3901 23.984C18.3784 23.987 18.3666 23.9898 18.3548 23.9927C18.3431 23.9957 18.3313 23.9986 18.3195 24.0015L18.2843 24.0097L18.249 24.0175C18.2372 24.02 18.2255 24.0228 18.2137 24.0253C18.202 24.0277 18.1902 24.0298 18.1784 24.0322L18.1432 24.039L18.1079 24.0454C18.0961 24.0475 18.0844 24.0494 18.0726 24.0514C18.0608 24.0533 18.0491 24.0555 18.0373 24.0573C18.0256 24.0591 18.0138 24.0607 18.002 24.0624L17.9667 24.0675C17.955 24.0691 17.9432 24.0707 17.9315 24.0722C17.9197 24.0737 17.9079 24.0749 17.8962 24.0763C17.8844 24.0776 17.8727 24.0791 17.8609 24.0804C17.8492 24.0816 17.8374 24.0827 17.8256 24.0838L17.7903 24.087C17.7786 24.088 17.7669 24.0893 17.7551 24.0901C17.7433 24.091 17.7315 24.0916 17.7198 24.0924L17.6845 24.0947L17.6492 24.0966C17.6375 24.0972 17.6257 24.0975 17.6139 24.0979C17.6022 24.0984 17.5904 24.0989 17.5786 24.0993C17.5669 24.0996 17.5551 24.0997 17.5434 24.1L17.5081 24.1005C17.4971 24.1005 17.4862 24.1009 17.4752 24.1009H17.4728H17.4375H17.4022H17.367H17.3317H17.2964H17.2611H17.2259H17.1906H17.1553H17.12H17.0847H17.0494H17.0142H16.9789H16.9436H16.9083H16.873H16.8378H16.8025H16.7672H16.7319H16.6966H16.6614H16.6261H16.5908H16.5555H16.5202H16.4849H16.4496H16.4144H16.3791H16.3438H16.3086H16.2733H16.238H16.2027H16.1674H16.1322H16.0969H16.0616H16.0263H15.991H15.9557H15.9205H15.8852H15.8499H15.8146H15.7793H15.7441H15.7088H15.6735H15.6382H15.6029H15.5676H15.5323H15.4971H15.4618H15.4265H15.3913H15.356H15.3207H15.2854H15.2501H15.2149H15.1796H15.1443H15.109H15.0737H15.0384H15.0032H14.9679H14.9326H14.8973H14.862H14.8267H14.7915H14.7562H14.7209H14.6856H14.6503H14.6151H14.5798H14.5445H14.5092H14.474H14.4387H14.4034H14.3681H14.3328H14.2976H14.2623H14.227H14.1917H14.1564H14.1211H14.0859H14.0506H14.0153H13.98H13.9447H13.9095H13.8742H13.8389H13.8036H13.7683H13.733H13.6978H13.6625H13.6272H13.5919H13.5567H13.5214H13.4861H13.4508H13.4155H13.3803H13.345H13.3097H13.2744H13.2391H13.2038H13.1686H13.1333H13.098H13.0628H13.0275H12.9922H12.9569H12.9216H12.8863H12.8511H12.8158H12.7805H12.7452H12.7099H12.6746H12.6394H12.6041H12.5688H12.5335H12.4983H12.463H12.4277H12.3924H12.3572H12.3219H12.2866H12.2513H12.216H12.1807H12.105V15.5277C12.1297 15.5492 12.155 15.5705 12.1807 15.5916C12.1924 15.6011 12.2042 15.6106 12.216 15.6201C12.2277 15.6294 12.2394 15.6387 12.2513 15.6479C12.263 15.657 12.2747 15.6661 12.2866 15.6752C12.2982 15.684 12.3101 15.6927 12.3219 15.7014C12.3335 15.71 12.3453 15.7186 12.3572 15.7271C12.3688 15.7355 12.3806 15.7439 12.3924 15.7523L12.4277 15.7768C12.4393 15.7848 12.4511 15.7927 12.463 15.8006L12.4983 15.824C12.5099 15.8316 12.5217 15.8393 12.5335 15.8468C12.5452 15.8543 12.557 15.8616 12.5688 15.869L12.6041 15.8908C12.6158 15.8979 12.6275 15.905 12.6394 15.9121C12.651 15.919 12.6628 15.9259 12.6746 15.9327L12.7099 15.9531L12.7452 15.9729L12.7805 15.9922C12.7922 15.9986 12.8039 16.005 12.8158 16.0113C12.8274 16.0175 12.8393 16.0236 12.8511 16.0297L12.8863 16.0479L12.9216 16.0657L12.9569 16.083C12.9686 16.0887 12.9803 16.0945 12.9922 16.1001L13.0275 16.1166L13.0628 16.133L13.098 16.1488L13.1333 16.1644L13.1686 16.1797L13.2038 16.1946L13.2391 16.2093L13.2744 16.2236L13.3097 16.2377L13.345 16.2513C13.3567 16.2558 13.3684 16.2604 13.3803 16.2648L13.4155 16.2779C13.4273 16.2822 13.439 16.2866 13.4508 16.2909C13.4625 16.2951 13.4743 16.2992 13.4861 16.3034L13.5214 16.3158L13.5567 16.3278C13.5684 16.3318 13.5801 16.3359 13.5919 16.3398C13.6036 16.3437 13.6154 16.3474 13.6272 16.3512L13.6625 16.3627L13.6978 16.3737L13.733 16.3847L13.7683 16.3952L13.8036 16.4057L13.8389 16.4158L13.8742 16.4258L13.9095 16.4356L13.9447 16.4451L13.98 16.4545L14.0153 16.4636L14.0506 16.4726L14.0859 16.4813L14.1211 16.4899L14.1564 16.4982L14.1917 16.5064L14.227 16.5144L14.2623 16.5222L14.2976 16.5299L14.3328 16.5372L14.3681 16.5446L14.4034 16.5516L14.4387 16.5586L14.474 16.5654L14.5092 16.572L14.5445 16.5785L14.5798 16.5847L14.6151 16.5909L14.6503 16.5969L14.6856 16.6027L14.7209 16.6085L14.7562 16.6139L14.7915 16.6194L14.8267 16.6246L14.862 16.6297L14.8973 16.6347L14.9326 16.6394L14.9679 16.6442L15.0032 16.6487L15.0384 16.6531L15.0737 16.6575L15.109 16.6616L15.1443 16.6656L15.1796 16.6696L15.2149 16.6733L15.2501 16.677L15.2854 16.6806L15.3207 16.6839L15.356 16.6873L15.3913 16.6904L15.4265 16.6934L15.4618 16.6965L15.4971 16.6992L15.5323 16.7019L15.5676 16.7047L15.6029 16.7071L15.6382 16.7095L15.6735 16.7119L15.7088 16.7139L15.7441 16.716L15.7793 16.7181L15.8146 16.7198L15.8499 16.7216L15.8852 16.7234L15.9205 16.7248L15.9557 16.7263L15.991 16.7277L16.0263 16.7289L16.0616 16.7301L16.0969 16.7313L16.1322 16.7321L16.1674 16.733L16.2027 16.7339L16.238 16.7346L16.2733 16.7351L16.3086 16.7358L16.3438 16.7361L16.3791 16.7365L16.4144 16.7368L16.4496 16.7369L16.4849 16.737L16.5202 16.737L16.5555 16.737L16.5908 16.7368L16.6261 16.7365L16.6614 16.7362L16.6966 16.7358L16.7319 16.7353L16.7672 16.7348L16.8025 16.7341L16.8378 16.7334L16.873 16.7326L16.9083 16.7317L16.9436 16.7307L16.9789 16.7297L17.0142 16.7286L17.0494 16.7274L17.0847 16.7262L17.12 16.7249L17.1553 16.7234L17.1906 16.722L17.2259 16.7205L17.2431 16.7197L17.2611 16.7188L17.2964 16.7171L17.3317 16.7152L17.367 16.7133L17.4022 16.7111L17.4375 16.7089L17.4728 16.7065L17.5081 16.704L17.5434 16.7014L17.5786 16.6987L17.6139 16.6959L17.6492 16.693L17.6845 16.6899L17.7198 16.6868L17.7551 16.6835L17.7903 16.6801L17.8256 16.6767L17.8609 16.6731L17.8962 16.6695L17.9315 16.6657L17.9667 16.6619L18.002 16.6579L18.0373 16.6539L18.0726 16.6498L18.1079 16.6456L18.1432 16.6413L18.1784 16.6369L18.2137 16.6324L18.249 16.6278L18.2843 16.6232L18.3195 16.6184L18.3548 16.6136L18.3901 16.6087L18.4254 16.6037L18.4607 16.5987L18.4959 16.5935L18.5312 16.5883L18.5665 16.5829L18.6018 16.5776L18.6371 16.5721L18.6723 16.5666L18.7076 16.561L18.7429 16.5553L18.7782 16.5495L18.8135 16.5437L18.8488 16.5378L18.884 16.5318L18.9193 16.5257L18.9546 16.5196L18.9899 16.5134L19.0252 16.5071L19.0605 16.5008L19.0957 16.4944L19.131 16.4879L19.1663 16.4814L19.2016 16.4747L19.2368 16.468L19.2721 16.4612L19.3074 16.4544L19.3427 16.4475L19.378 16.4405L19.4132 16.4335L19.4485 16.4264L19.4838 16.4192L19.5191 16.412L19.5544 16.4046L19.5896 16.3972L19.6249 16.3897L19.6602 16.3822L19.6955 16.3746L19.7308 16.3669L19.7661 16.3591L19.8013 16.3513L19.8366 16.3433L19.8719 16.3354L19.9072 16.3272L19.9425 16.3191L19.9778 16.3108L20.013 16.3024L20.0483 16.2939L20.0836 16.2852L20.1187 16.2765V14.7058L20.0836 14.7235L20.0483 14.7411L20.013 14.7586L19.9778 14.776L19.9425 14.7932L19.9072 14.8102L19.8719 14.827L19.8366 14.8437L19.8013 14.8602L19.7661 14.8766L19.7308 14.8927L19.6955 14.9087L19.6602 14.9244L19.6249 14.94L19.5896 14.9554L19.5544 14.9706L19.5191 14.9856L19.4838 15.0005L19.4485 15.0151L19.4132 15.0295L19.378 15.0438L19.3427 15.0579L19.3074 15.0717L19.2721 15.0854L19.2368 15.0988L19.2016 15.112L19.1663 15.1251L19.131 15.1379L19.0957 15.1506L19.0605 15.163L19.0252 15.1752L18.9899 15.1873L18.9546 15.1991L18.9193 15.2107L18.884 15.2222L18.8488 15.2334L18.8135 15.2444L18.7782 15.2552L18.7429 15.2658L18.7076 15.2762L18.6723 15.2864L18.6371 15.2964L18.6018 15.3062L18.5665 15.3158L18.5312 15.3252L18.4959 15.3344L18.4607 15.3433L18.4254 15.3521L18.3901 15.3607L18.3548 15.3691L18.3195 15.3772L18.2843 15.3852L18.249 15.393L18.2137 15.4006L18.1784 15.4079L18.1432 15.4151L18.1079 15.4221L18.0726 15.4289L18.0373 15.4354L18.002 15.4418L17.9667 15.448L17.9315 15.4539L17.8962 15.4597L17.8609 15.4654L17.8256 15.4708L17.7903 15.476L17.7551 15.481L17.7198 15.4858L17.6845 15.4904L17.6492 15.4949L17.6139 15.4992L17.5786 15.5032L17.5434 15.5071L17.5081 15.5108L17.4728 15.5142L17.4375 15.5175L17.4022 15.5207L17.367 15.5236L17.3456 15.5253L17.3317 15.5263L17.2964 15.5287L17.2611 15.5311L17.2259 15.533L17.1906 15.5348L17.1553 15.5365L17.12 15.5376L17.0847 15.5388L17.0494 15.5396L17.0142 15.5401L16.9789 15.5405C16.9671 15.5406 16.9554 15.5404 16.9436 15.5404L16.9083 15.5403L16.873 15.5398L16.8378 15.539L16.8025 15.5381C16.7906 15.5377 16.7789 15.5371 16.7672 15.5366C16.7555 15.5361 16.7436 15.5358 16.7319 15.5352L16.6966 15.5332L16.6614 15.531L16.6261 15.5286L16.5908 15.5257C16.579 15.5247 16.5672 15.5239 16.5555 15.5228C16.5437 15.5217 16.532 15.5204 16.5202 15.5192L16.4849 15.5156L16.4496 15.5115L16.4144 15.5071L16.3791 15.5024L16.3438 15.4973C16.332 15.4956 16.3202 15.4939 16.3086 15.492C16.2967 15.4901 16.285 15.4881 16.2733 15.4861C16.2615 15.4841 16.2496 15.4823 16.238 15.4801C16.2261 15.478 16.2145 15.4757 16.2027 15.4734C16.1909 15.4712 16.1791 15.4691 16.1674 15.4668C16.1556 15.4644 16.1439 15.4618 16.1322 15.4593C16.1204 15.4568 16.1085 15.4544 16.0969 15.4518C16.085 15.4491 16.0733 15.4463 16.0616 15.4435L16.0263 15.4351C16.0145 15.4322 16.0027 15.4291 15.991 15.4261C15.9792 15.423 15.9674 15.42 15.9557 15.4168C15.9439 15.4136 15.9322 15.4103 15.9205 15.4069C15.9087 15.4036 15.8969 15.4002 15.8852 15.3967C15.8733 15.3932 15.8616 15.3895 15.8499 15.3859C15.8381 15.3822 15.8263 15.3785 15.8146 15.3747C15.8028 15.3708 15.7911 15.3669 15.7793 15.3629C15.7676 15.3589 15.7557 15.3549 15.7441 15.3507C15.7322 15.3465 15.7205 15.3422 15.7088 15.3378C15.697 15.3335 15.6852 15.3292 15.6735 15.3247C15.6616 15.3201 15.65 15.3153 15.6382 15.3106C15.6264 15.3059 15.6146 15.3012 15.6029 15.2964C15.591 15.2914 15.5794 15.2862 15.5676 15.2811C15.5558 15.276 15.544 15.2709 15.5323 15.2656C15.5205 15.2602 15.5088 15.2547 15.4971 15.2491C15.4853 15.2436 15.4735 15.238 15.4618 15.2323C15.45 15.2264 15.4382 15.2205 15.4265 15.2146C15.4147 15.2085 15.4029 15.2024 15.3913 15.1961C15.3794 15.1899 15.3676 15.1837 15.356 15.1772C15.3441 15.1707 15.3324 15.1639 15.3207 15.1571C15.3089 15.1503 15.297 15.1436 15.2854 15.1366C15.2735 15.1295 15.2618 15.1222 15.2501 15.115C15.2383 15.1076 15.2265 15.1001 15.2149 15.0925C15.2031 15.0849 15.1912 15.0773 15.1796 15.0695C15.1676 15.0615 15.156 15.0532 15.1443 15.045C15.1324 15.0366 15.1207 15.0282 15.109 15.0197C15.0972 15.011 15.0853 15.0024 15.0737 14.9935C15.0618 14.9844 15.0501 14.9751 15.0384 14.9659C15.0266 14.9564 15.0148 14.9469 15.0032 14.9372C14.9913 14.9274 14.9795 14.9176 14.9679 14.9076C14.9559 14.8972 14.9443 14.8867 14.9326 14.8761C14.9207 14.8653 14.909 14.8544 14.8973 14.8434C14.8854 14.8321 14.8736 14.8207 14.862 14.8093C14.8502 14.7975 14.8383 14.7857 14.8267 14.7737C14.8148 14.7613 14.8031 14.7486 14.7915 14.7359C14.7795 14.7228 14.7678 14.7096 14.7562 14.6963C14.7443 14.6826 14.7325 14.6687 14.7209 14.6547C14.709 14.6402 14.6972 14.6257 14.6856 14.6109C14.6737 14.5956 14.6619 14.5802 14.6503 14.5645C14.6384 14.5484 14.6266 14.5321 14.6151 14.5155C14.6031 14.4983 14.5913 14.481 14.5798 14.4633C14.5678 14.445 14.556 14.4264 14.5445 14.4076C14.5324 14.3878 14.5207 14.3678 14.5092 14.3477C14.4971 14.3264 14.4854 14.3049 14.474 14.2831C14.4618 14.26 14.4501 14.2366 14.4387 14.213C14.4265 14.1878 14.4147 14.1622 14.4034 14.1364C14.3912 14.1086 14.3793 14.0806 14.3681 14.0521C14.3557 14.0206 14.3441 13.9884 14.3328 13.956C14.3204 13.92 14.3086 13.8836 14.2976 13.8465C14.2848 13.8036 14.273 13.7599 14.2623 13.7154C14.2489 13.6601 14.2372 13.6037 14.227 13.5462C14.2118 13.4609 14.2 13.3733 14.1917 13.2833C14.1822 13.1794 14.1773 13.0723 14.1773 12.9621C14.1773 12.8519 14.1822 12.7447 14.1917 12.6407C14.2 12.5507 14.2118 12.463 14.227 12.3777C14.2372 12.3202 14.2489 12.2636 14.2623 12.2083C14.273 12.1639 14.2848 12.1202 14.2976 12.0772C14.3086 12.0401 14.3204 12.0036 14.3328 11.9676C14.3441 11.9352 14.3557 11.9031 14.3681 11.8715C14.3793 11.843 14.3912 11.8149 14.4034 11.7871C14.4147 11.7613 14.4265 11.7358 14.4387 11.7106C14.4501 11.6869 14.4618 11.6635 14.474 11.6404C14.4854 11.6186 14.4971 11.597 14.5092 11.5758C14.5207 11.5556 14.5324 11.5356 14.5445 11.5159C14.556 11.497 14.5678 11.4784 14.5798 11.4601C14.5913 11.4424 14.6031 11.4251 14.6151 11.4078C14.6266 11.3913 14.6384 11.375 14.6503 11.3588C14.6619 11.3432 14.6737 11.3278 14.6856 11.3125C14.6972 11.2977 14.709 11.2831 14.7209 11.2687C14.7325 11.2546 14.7443 11.2407 14.7562 11.227C14.7678 11.2137 14.7795 11.2004 14.7915 11.1874C14.8031 11.1747 14.8148 11.162 14.8267 11.1496C14.8383 11.1375 14.8502 11.1257 14.862 11.114C14.8736 11.1025 14.8854 11.0911 14.8973 11.0799C14.909 11.0689 14.9207 11.0579 14.9326 11.0471C14.9443 11.0365 14.9559 11.026 14.9679 11.0156C14.9795 11.0056 14.9913 10.9958 15.0032 10.9859C15.0148 10.9763 15.0266 10.9668 15.0384 10.9573C15.0501 10.948 15.0618 10.9387 15.0737 10.9296C15.0853 10.9207 15.0972 10.9121 15.109 10.9035C15.1207 10.8949 15.1324 10.8865 15.1443 10.8782C15.156 10.87 15.1676 10.8617 15.1796 10.8536C15.1912 10.8458 15.2031 10.8382 15.2149 10.8306C15.2265 10.823 15.2383 10.8155 15.2501 10.8081C15.2618 10.8008 15.2735 10.7936 15.2854 10.7865C15.297 10.7795 15.3089 10.7728 15.3207 10.766C15.3324 10.7592 15.3441 10.7524 15.356 10.7459C15.3676 10.7394 15.3794 10.7332 15.3913 10.7269C15.4029 10.7207 15.4147 10.7146 15.4265 10.7085C15.4382 10.7025 15.45 10.6966 15.4618 10.6908C15.4735 10.6851 15.4853 10.6795 15.4971 10.6739C15.5088 10.6684 15.5205 10.6628 15.5323 10.6574C15.544 10.6521 15.5558 10.6471 15.5676 10.6419C15.5794 10.6368 15.591 10.6316 15.6029 10.6266C15.6146 10.6218 15.6264 10.6171 15.6382 10.6124C15.65 10.6077 15.6616 10.6029 15.6735 10.5983C15.6852 10.5939 15.697 10.5895 15.7088 10.5852C15.7205 10.5808 15.7322 10.5765 15.7441 10.5723C15.7557 10.5681 15.7676 10.5641 15.7793 10.5601C15.7911 10.5561 15.8028 10.5521 15.8146 10.5483C15.8263 10.5445 15.8381 10.5408 15.8499 10.5371C15.8616 10.5335 15.8733 10.5298 15.8852 10.5263L15.9205 10.5161C15.9322 10.5128 15.9439 10.5094 15.9557 10.5062C15.9674 10.503 15.9792 10.5 15.991 10.4969C16.0027 10.4939 16.0145 10.4908 16.0263 10.4879L16.0616 10.4795C16.0733 10.4767 16.085 10.4739 16.0969 10.4712C16.1085 10.4686 16.1204 10.4662 16.1322 10.4637C16.1439 10.4612 16.1556 10.4586 16.1674 10.4562C16.1791 10.4539 16.1909 10.4517 16.2027 10.4495C16.2145 10.4473 16.2261 10.4449 16.238 10.4428C16.2496 10.4407 16.2615 10.4389 16.2733 10.4369C16.285 10.4349 16.2967 10.4328 16.3086 10.431L16.3438 10.4256L16.3791 10.4205L16.4144 10.4158L16.4496 10.4115L16.4849 10.4073L16.5202 10.4037C16.532 10.4025 16.5437 10.4012 16.5555 10.4001C16.5672 10.399 16.579 10.3982 16.5908 10.3972L16.6261 10.3944L16.6614 10.3919L16.6966 10.3898L16.7319 10.3878C16.7436 10.3872 16.7555 10.3868 16.7672 10.3863C16.7789 10.3858 16.7906 10.3852 16.8025 10.3849L16.8378 10.3839L16.873 10.3832L16.9083 10.3826L16.9436 10.3825C16.9554 10.3825 16.9671 10.3823 16.9789 10.3824L17.0142 10.3828L17.0494 10.3834L17.0847 10.3841L17.12 10.3853L17.1553 10.3865L17.1906 10.3881L17.2259 10.3899L17.2611 10.3919L17.2964 10.3942L17.3317 10.3966L17.3456 10.3976L17.367 10.3993L17.4022 10.4022L17.4375 10.4053L17.4728 10.4085L17.5081 10.4119L17.5434 10.4156L17.5786 10.4194L17.6139 10.4234L17.6492 10.4276L17.6845 10.432L17.7198 10.4365L17.7551 10.4413L17.7903 10.4463L17.8256 10.4514L17.8609 10.4567L17.8962 10.4623L17.9315 10.468L17.9667 10.4739L18.002 10.48L18.0373 10.4864L18.0726 10.4929L18.1079 10.4995L18.1432 10.5065L18.1784 10.5136L18.2137 10.5209L18.249 10.5284L18.2843 10.5361L18.3195 10.544L18.3548 10.5521L18.3901 10.5604L18.4254 10.569L18.4607 10.5777L18.4959 10.5866L18.5312 10.5958L18.5665 10.6051L18.6018 10.6147L18.6371 10.6244L18.6723 10.6344L18.7076 10.6446L18.7429 10.655L18.7782 10.6656L18.8135 10.6764L18.8488 10.6874L18.884 10.6986L18.9193 10.71L18.9546 10.7217L18.9899 10.7335L19.0252 10.7456L19.0605 10.7578L19.0957 10.7703L19.131 10.783L19.1663 10.7959L19.2016 10.8089L19.2368 10.8222L19.2721 10.8358L19.3074 10.8495L19.3427 10.8634L19.378 10.8775L19.4132 10.8918L19.4485 10.9063L19.4838 10.9211L19.5191 10.936L19.5544 10.9511L19.5896 10.9665L19.6249 10.982L19.6602 10.9977L19.6955 11.0135L19.7308 11.0296L19.7661 11.0459L19.8013 11.0624L19.8366 11.079L19.8719 11.0959L19.9072 11.1128L19.9425 11.13L19.9778 11.1474L20.013 11.1649L20.0483 11.1826L20.0836 11.2004L20.1187 11.2183V9.64647L20.0836 9.63768L20.0483 9.62906L20.013 9.62057L19.9778 9.61216L19.9425 9.60388L19.9072 9.59571L19.8719 9.5876L19.8366 9.57958L19.8013 9.57168L19.7661 9.5638L19.7308 9.55605L19.6955 9.54839L19.6602 9.54072L19.6249 9.53321L19.5896 9.52575L19.5544 9.51836L19.5191 9.51102L19.4838 9.50377L19.4485 9.49658L19.4132 9.48948L19.378 9.48247L19.3427 9.47546L19.3074 9.46857L19.2721 9.46174L19.2368 9.455L19.2016 9.44831L19.1663 9.44169L19.131 9.43516L19.0957 9.42868L19.0605 9.42226L19.0252 9.41594L18.9899 9.40967L18.9546 9.40346L18.9193 9.39737L18.884 9.39131L18.8488 9.38534L18.8135 9.37943L18.7782 9.37361L18.7429 9.36788L18.7076 9.36217L18.6723 9.35659L18.6371 9.35103L18.6018 9.3456L18.5665 9.34022L18.5312 9.3349L18.4959 9.32971L18.4607 9.32457L18.4254 9.31952L18.3901 9.31456L18.3548 9.30966L18.3195 9.30484L18.2843 9.30009L18.249 9.29549L18.2137 9.29091L18.1784 9.28643L18.1432 9.28203L18.1079 9.27775L18.0726 9.27357L18.0373 9.26944L18.002 9.26543L17.9667 9.26148L17.9315 9.25767L17.8962 9.2539L17.8609 9.25031L17.8256 9.24674L17.7903 9.2433L17.7551 9.23994L17.7198 9.23673L17.6845 9.23358L17.6492 9.23055L17.6139 9.22764L17.5786 9.22482L17.5434 9.22218L17.5081 9.21953L17.4728 9.21713L17.4375 9.21472L17.4022 9.21255L17.367 9.21041L17.3317 9.20845L17.2964 9.20658L17.2611 9.20486L17.2431 9.204L17.2259 9.20326L17.1906 9.20177L17.1553 9.20029L17.12 9.1988L17.0847 9.19755L17.0494 9.19633L17.0142 9.19509L16.9789 9.19402L16.9436 9.19301L16.9083 9.19203L16.873 9.19111L16.8378 9.19036L16.8025 9.18965L16.7672 9.18891L16.7319 9.18843L16.6966 9.18796L16.6614 9.18748L16.6261 9.18719L16.5908 9.18701L16.5555 9.1868L16.5202 9.18671L16.4849 9.18677L16.4496 9.18683L16.4144 9.18695L16.3791 9.18727L16.3438 9.18763L16.3086 9.18799L16.2733 9.18861L16.238 9.18921L16.2027 9.18983L16.1674 9.19072L16.1322 9.19161L16.0969 9.1925L16.0616 9.19366L16.0263 9.19485L15.991 9.19604L15.9557 9.19749L15.9205 9.19898L15.8852 9.20043L15.8499 9.20219L15.8146 9.20397L15.7793 9.20572L15.7441 9.20777L15.7088 9.20985L15.6735 9.21193L15.6382 9.21431L15.6029 9.21671L15.5676 9.21912L15.5323 9.22185L15.4971 9.22455L15.4618 9.22735L15.4265 9.23038L15.3913 9.23338L15.356 9.23655L15.3207 9.23991L15.2854 9.24327L15.2501 9.24683L15.2149 9.25054L15.1796 9.25423L15.1443 9.25824L15.109 9.26225L15.0737 9.26635L15.0384 9.27074L15.0032 9.27511L14.9679 9.27971L14.9326 9.28444L14.8973 9.28916L14.862 9.29421L14.8267 9.29929L14.7915 9.30452L14.7562 9.30998L14.7209 9.31542L14.6856 9.32118L14.6503 9.32703L14.6151 9.333L14.5798 9.33918L14.5445 9.34539L14.5092 9.35192L14.474 9.35855L14.4387 9.36532L14.4034 9.3723L14.3681 9.37931L14.3328 9.38671L14.2976 9.3941L14.2623 9.40177L14.227 9.40958L14.1917 9.41754L14.1564 9.42577L14.1211 9.43403L14.0859 9.4427L14.0506 9.45137L14.0153 9.46037L13.98 9.46949L13.9447 9.47888L13.9095 9.48844L13.8742 9.49819L13.8389 9.5082L13.8036 9.51836L13.7683 9.52884L13.733 9.53939L13.6978 9.55035L13.6625 9.56137L13.6272 9.57283C13.6154 9.57667 13.6036 9.58041 13.5919 9.5843L13.5567 9.59627C13.5449 9.60025 13.533 9.60417 13.5214 9.60824L13.4861 9.62072L13.4508 9.63319C13.439 9.63747 13.4273 9.6419 13.4155 9.64623C13.4037 9.65057 13.3919 9.65485 13.3803 9.65927L13.345 9.67285C13.3332 9.67739 13.3213 9.68185 13.3097 9.68645L13.2744 9.70059L13.2391 9.71485L13.2038 9.72955L13.1686 9.74446L13.1333 9.75973L13.098 9.77536L13.0628 9.79122L13.0275 9.80759L12.9922 9.8241C12.9803 9.82974 12.9686 9.83551 12.9569 9.84121L12.9216 9.85853L12.8863 9.87632L12.8511 9.8945C12.8393 9.90065 12.8274 9.90674 12.8158 9.91295C12.8039 9.91924 12.7922 9.92566 12.7805 9.93205L12.7452 9.95141L12.7099 9.97122C12.6981 9.97797 12.6864 9.98477 12.6746 9.9916C12.6628 9.99846 12.651 10.0053 12.6394 10.0122C12.6275 10.0193 12.6158 10.0264 12.6041 10.0335C12.5922 10.0408 12.5805 10.048 12.5688 10.0553C12.557 10.0627 12.5452 10.0701 12.5335 10.0775C12.5217 10.0851 12.5099 10.0927 12.4983 10.1004L12.463 10.1238C12.4511 10.1317 12.4393 10.1396 12.4277 10.1476L12.3924 10.1721C12.3806 10.1805 12.3688 10.1889 12.3572 10.1973C12.3453 10.2058 12.3335 10.2144 12.3219 10.223C12.3101 10.2318 12.2982 10.2405 12.2866 10.2493C12.2747 10.2583 12.263 10.2674 12.2513 10.2765C12.2394 10.2858 12.2277 10.2951 12.216 10.3044C12.2042 10.3138 12.1924 10.3233 12.1807 10.3329V10.3329Z" fill="url(#paint2_linear_48:726)"/>
</g>
<defs>
<linearGradient id="paint0_linear_48:726" x1="22.2349" y1="12.9615" x2="31.2672" y2="12.9615" gradientUnits="userSpaceOnUse">
<stop stop-color="#007B40"/>
<stop offset="1" stop-color="#55B330"/>
</linearGradient>
<linearGradient id="paint1_linear_48:726" x1="1.9751" y1="12.9615" x2="11.0064" y2="12.9615" gradientUnits="userSpaceOnUse">
<stop stop-color="#1D2970"/>
<stop offset="1" stop-color="#006DBA"/>
</linearGradient>
<linearGradient id="paint2_linear_48:726" x1="12.105" y1="12.9615" x2="21.1366" y2="12.9615" gradientUnits="userSpaceOnUse">
<stop stop-color="#6E2B2F"/>
<stop offset="1" stop-color="#E30138"/>
</linearGradient>
<clipPath id="clip0_48:726">
<rect width="32.9526" height="25.7442" fill="white" transform="translate(0.144531 0.0893555)"/>
</clipPath>
</defs>
</svg>
