<svg width="25" height="25" viewBox="0 0 25 25" fill="none" xmlns="http://www.w3.org/2000/svg">
<path d="M7 2C4.24433 2 2 4.24433 2 7V18C2 20.7557 4.24433 23 7 23H18C20.7557 23 23 20.7557 23 18V7C23 4.24433 20.7557 2 18 2H7ZM7 3H18C20.2153 3 22 4.78467 22 7V18C22 20.2153 20.2153 22 18 22H7C4.78467 22 3 20.2153 3 18V7C3 4.78467 4.78467 3 7 3ZM6.5 7.5C5.67752 7.5 5 8.17752 5 9V16C5 16.8225 5.67752 17.5 6.5 17.5H18.5C19.3225 17.5 20 16.8225 20 16V9C20 8.17752 19.3225 7.5 18.5 7.5H6.5ZM6.70703 8.5H18.292L13.8389 12.9463C13.0925 13.6915 11.8984 13.6914 11.1523 12.9453L6.70703 8.5ZM19 9.20605V15.7939L15.7012 12.5L19 9.20605ZM6 9.20703L9.29297 12.5L6 15.793V9.20703ZM14.9941 13.2061L18.293 16.5H6.70703L10 13.207L10.4453 13.6523C11.5732 14.7803 13.4163 14.7811 14.5449 13.6543L14.9941 13.2061Z" fill="black"/>
</svg>
