<svg width="30" height="30" viewBox="0 0 30 30" fill="none" xmlns="http://www.w3.org/2000/svg">
<path d="M14.5941 1.18066C11.6158 1.18066 9.2638 2.05922 7.67862 3.68373C6.09345 5.30825 5.31276 7.63246 5.31276 10.387C5.31276 11.5274 5.82358 13.7255 6.23743 15.0277C6.06276 15.1755 5.89598 15.2698 5.72552 15.5292C5.44141 15.9616 5.23041 16.5782 5.31622 17.3082C5.3166 17.3082 5.31698 17.3082 5.31737 17.3082C5.45688 18.492 5.82915 19.2931 6.19131 19.7986C6.4502 20.16 6.60165 20.2327 6.74127 20.3324C6.92555 21.3792 7.58821 22.6105 8.57563 23.8697C9.61936 25.2008 10.985 26.4768 12.4865 27.1902C13.0274 27.8669 13.8277 28.3351 14.7578 28.3351C15.6873 28.3351 16.4869 27.8672 17.028 27.1914C18.5257 26.477 19.8835 25.1981 20.9203 23.8663C21.8995 22.6086 22.5553 21.3793 22.7397 20.3359C22.8835 20.2366 23.0318 20.1693 23.292 19.8148C23.66 19.3132 24.0386 18.5142 24.1786 17.329C24.2647 16.5965 24.049 15.9771 23.7624 15.5407C23.5899 15.2781 23.4212 15.1802 23.2447 15.03C23.659 13.7134 24.2028 11.68 24.2028 9.44506C24.2028 8.41786 23.99 7.01483 23.2954 5.79249C22.6445 4.64696 21.4692 3.70488 19.802 3.58689C19.0464 2.43331 17.4066 1.18066 14.5941 1.18066ZM14.5941 2.36129C17.2479 2.36129 18.5148 3.59553 18.9615 4.41471C19.0123 4.50793 19.0873 4.58573 19.1786 4.6399C19.2699 4.69408 19.3741 4.72263 19.4803 4.72255C20.9225 4.72255 21.7202 5.41155 22.2681 6.37589C22.8161 7.34023 23.0222 8.5933 23.0222 9.44506C23.0222 11.6335 22.4304 13.7822 22.0295 15.0104C21.9835 15.1523 21.993 15.3064 22.056 15.4416C21.4154 16.0078 20.7189 16.5075 20.013 16.952L19.9795 16.9289C19.9626 16.9531 19.9498 16.9784 19.9334 17.0027C19.4364 17.3118 18.9366 17.5992 18.4472 17.8374C17.0312 18.5267 15.6891 18.8901 14.9411 18.8901C14.1309 18.8901 12.7288 18.5413 11.247 17.8789C9.95139 17.2998 8.5783 16.4889 7.39039 15.5062C7.437 15.4316 7.46636 15.3476 7.47634 15.2602C7.48631 15.1728 7.47664 15.0843 7.44803 15.0012C7.0908 13.971 6.49338 11.1429 6.49338 10.387C6.49338 7.85297 7.19527 5.86954 8.52374 4.5081C9.85222 3.14666 11.8445 2.36129 14.5941 2.36129ZM19.154 6.85552C19.1459 6.85612 19.1379 6.85689 19.1298 6.85783C19.1205 6.85876 19.1113 6.85991 19.1021 6.86128C19.0998 6.86166 19.0975 6.86204 19.0952 6.86244C18.9922 6.87735 18.895 6.91922 18.8134 6.98381C18.7318 7.0484 18.6687 7.13341 18.6306 7.23023C18.603 7.28505 18.3642 7.74759 17.707 8.28749C17.0101 8.86008 15.9061 9.44506 14.1675 9.44506C13.0607 9.44506 11.6826 9.45307 10.4872 9.88549C9.88957 10.1017 9.32611 10.4355 8.91344 10.9543C8.50077 11.4731 8.26433 12.1661 8.26433 12.9869C8.26322 13.0652 8.27767 13.1428 8.30684 13.2154C8.33601 13.288 8.37932 13.3541 8.43424 13.4098C8.48917 13.4655 8.55462 13.5097 8.62679 13.5399C8.69896 13.5701 8.77641 13.5857 8.85464 13.5857C8.93287 13.5857 9.01032 13.5701 9.08249 13.5399C9.15466 13.5097 9.22011 13.4655 9.27504 13.4098C9.32997 13.3541 9.37327 13.288 9.40244 13.2154C9.43161 13.1428 9.44606 13.0652 9.44496 12.9869C9.44496 12.381 9.59775 11.992 9.83811 11.6899C10.0785 11.3877 10.4324 11.1608 10.8885 10.9958C11.8006 10.6658 13.0783 10.6257 14.1675 10.6257C16.1773 10.6257 17.5817 9.91936 18.4565 9.20064C18.757 8.95375 18.98 8.71128 19.169 8.4858C19.7406 9.40281 20.6609 11.1548 20.6609 12.9869C20.6598 13.0652 20.6743 13.1428 20.7034 13.2154C20.7326 13.288 20.7759 13.3541 20.8308 13.4098C20.8858 13.4655 20.9512 13.5097 21.0234 13.5399C21.0956 13.5701 21.173 13.5857 21.2512 13.5857C21.3295 13.5857 21.4069 13.5701 21.4791 13.5399C21.5513 13.5097 21.6167 13.4655 21.6716 13.4098C21.7266 13.3541 21.7699 13.288 21.799 13.2154C21.8282 13.1428 21.8427 13.0652 21.8416 12.9869C21.8416 9.95164 19.9242 7.44474 19.719 7.18411C19.6676 7.0798 19.5866 6.99297 19.4861 6.93451C19.3856 6.87605 19.2701 6.84857 19.154 6.85552ZM11.5111 15.3482C11.2762 15.3482 11.051 15.4415 10.8849 15.6076C10.7189 15.7736 10.6256 15.9988 10.6256 16.2337C10.6256 16.4685 10.7189 16.6937 10.8849 16.8598C11.051 17.0259 11.2762 17.1191 11.5111 17.1191C11.7459 17.1191 11.9711 17.0259 12.1372 16.8598C12.3032 16.6937 12.3965 16.4685 12.3965 16.2337C12.3965 15.9988 12.3032 15.7736 12.1372 15.6076C11.9711 15.4415 11.7459 15.3482 11.5111 15.3482ZM18.0045 15.3482C17.7697 15.3482 17.5444 15.4415 17.3784 15.6076C17.2123 15.7736 17.119 15.9988 17.119 16.2337C17.119 16.4685 17.2123 16.6937 17.3784 16.8598C17.5444 17.0259 17.7697 17.1191 18.0045 17.1191C18.2394 17.1191 18.4646 17.0259 18.6306 16.8598C18.7967 16.6937 18.89 16.4685 18.89 16.2337C18.89 15.9988 18.7967 15.7736 18.6306 15.6076C18.4646 15.4415 18.2394 15.3482 18.0045 15.3482ZM22.8481 16.3167C22.9713 16.5449 23.0497 16.8202 23.006 17.1918C22.8874 18.1946 22.5869 18.7807 22.3408 19.1161C22.0946 19.4516 21.9592 19.5069 21.9592 19.5069C21.8735 19.5522 21.8003 19.6178 21.746 19.698C21.6917 19.7783 21.658 19.8706 21.6479 19.967C21.5917 20.5023 21.0418 21.6802 20.2078 22.8297C19.9623 21.1807 19.8862 19.3524 20.7889 17.857C21.4979 17.4014 22.1966 16.8943 22.8481 16.3167ZM6.59946 16.3813C7.16516 16.8531 7.76362 17.285 8.37616 17.6737C9.35141 19.1263 9.33792 20.9367 9.11406 22.5888C8.37238 21.5181 7.88609 20.4626 7.83427 19.967C7.82417 19.8725 7.79144 19.7819 7.73885 19.7028C7.68627 19.6238 7.61538 19.5585 7.5322 19.5127C7.5322 19.5127 7.39685 19.4536 7.15172 19.1115C6.9066 18.7693 6.60723 18.175 6.48877 17.1699H6.48993C6.45115 16.84 6.50427 16.5886 6.59946 16.3813ZM10.1217 18.6411C10.3366 18.7471 10.5527 18.862 10.7651 18.957C12.3503 19.6655 13.8228 20.0707 14.9411 20.0707C16.0296 20.0707 17.4425 19.6392 18.9649 18.8982C19.0103 18.8761 19.0566 18.847 19.1021 18.8244C18.6045 20.6694 18.94 22.5829 19.2117 24.0507C18.3802 24.9388 17.4153 25.7204 16.4711 26.1595C16.3733 26.2053 16.2899 26.2771 16.2301 26.367C15.9116 26.8425 15.3762 27.1545 14.7578 27.1545C14.1398 27.1545 13.6051 26.8432 13.2866 26.3682C13.2265 26.2781 13.1427 26.2063 13.0445 26.1606C12.0224 25.6878 10.9835 24.8124 10.1044 23.8386C10.3768 22.3476 10.6689 20.4578 10.1217 18.6411Z" fill="#E80A1F"/>
</svg>
