<svg width="40" height="26" viewBox="0 0 40 26" fill="none" xmlns="http://www.w3.org/2000/svg">
<path d="M40.0001 16.3489L9.77697 25.8336L0.969727 1.85833L32.6984 0.0893555L40.0001 16.3489Z" fill="#02797E"/>
<path d="M17.1539 11.5302C17.1539 12.1324 17.0033 12.6594 16.7398 13.1486C16.4764 13.6003 16.1 14.0143 15.6107 14.3154C15.1214 14.6165 14.5192 14.8423 13.8417 14.9929C13.1643 15.1434 12.4115 15.2187 11.5458 15.2187H10.9436V18.305H7.0293V8.02991H11.6211C13.3524 8.02991 14.7074 8.33101 15.686 8.89558C16.6646 9.46014 17.1539 10.3634 17.1539 11.5302ZM13.3901 11.5679C13.3901 10.6646 12.7126 10.2129 11.3953 10.2129H10.906V12.9605H11.3576C11.9975 12.9605 12.5244 12.8475 12.8632 12.6217C13.2019 12.4335 13.3901 12.0571 13.3901 11.5679ZM26.8644 18.305C26.2622 18.4179 25.5847 18.4932 24.7943 18.4932C23.7028 18.4932 22.7243 18.3803 21.8962 18.1168C21.0306 17.8534 20.3154 17.5146 19.7132 17.063C19.111 16.6113 18.6594 16.0468 18.3583 15.4069C18.0572 14.7294 17.9066 14.0143 17.9066 13.2239C17.9066 12.4335 18.0572 11.7184 18.3959 11.0409C18.7397 10.3873 19.2136 9.81087 19.7885 9.34723C20.3907 8.89558 21.1058 8.5192 21.9339 8.25573C22.7619 7.99227 23.6652 7.87936 24.6438 7.87936C25.3965 7.87936 26.1117 7.91699 26.7515 8.02991C27.3913 8.18046 27.3913 8.18046 27.8806 8.36865V11.1162C27.5043 10.8904 27.0526 10.7022 26.5633 10.5893C26.074 10.4387 25.5471 10.3634 25.0202 10.3634C24.1169 10.3634 23.4017 10.6269 22.8372 11.0786C22.2726 11.5679 22.0091 12.2453 22.0091 13.1863C22.0091 13.6379 22.0844 14.052 22.2726 14.4283C22.4608 14.7671 22.6866 15.0682 22.9877 15.294C23.2888 15.5198 23.6276 15.708 24.0416 15.8209C24.4556 15.9338 24.8696 16.0091 25.3213 16.0091C25.7729 16.0091 26.2622 15.9715 26.7139 15.8586C27.1655 15.7457 27.6548 15.6327 28.1441 15.4069V18.0039L26.8644 18.305ZM29.7625 8.02991H33.7145V18.3427H29.7625V8.02991ZM34.1285 4.79306C34.1285 5.47054 33.9027 6.0351 33.451 6.41148C32.9994 6.78786 32.4348 7.01369 31.7573 7.01369C31.0798 7.01369 30.5153 6.8255 30.0636 6.41148C29.612 6.0351 29.3861 5.47054 29.3861 4.79306C29.3861 4.07794 29.612 3.55101 30.0636 3.13699C30.5153 2.72298 31.0798 2.53479 31.7573 2.53479C32.4348 2.53479 32.9994 2.72298 33.451 3.13699C33.9027 3.51337 34.1285 4.07794 34.1285 4.79306Z" fill="white"/>
</svg>
