<svg width="25" height="25" viewBox="0 0 25 25" fill="none" xmlns="http://www.w3.org/2000/svg">
<path d="M5.92002 1.49412C5.53526 1.46287 5.10752 1.5742 4.71299 1.85154C4.36533 2.09373 3.61533 2.68943 2.91416 3.36326C2.56455 3.6992 2.23057 4.04881 1.97276 4.39256C1.71299 4.73631 1.48643 5.05076 1.5001 5.50779C1.51377 5.91795 1.55479 7.13084 2.42783 8.99021C3.30088 10.8476 4.99424 13.3965 8.29698 16.7012C11.6017 20.0058 14.1505 21.6992 16.0079 22.5722C17.8653 23.4453 19.0802 23.4863 19.4903 23.5C19.9454 23.5137 20.2599 23.2871 20.6036 23.0273C20.9474 22.7676 21.297 22.4355 21.6329 22.0859C22.3048 21.3847 22.9005 20.6347 23.1427 20.2871C23.6954 19.5 23.6036 18.5703 22.9884 18.1387C22.6017 17.8672 19.045 15.5 18.5099 15.1719C17.9669 14.8398 17.3419 14.9902 16.7833 15.2851C16.3439 15.5176 15.1544 16.1992 14.8146 16.3945C14.5587 16.2324 13.588 15.5859 11.5001 13.498C9.41026 11.4101 8.76573 10.4394 8.60362 10.1836C8.79893 9.84373 9.47862 8.66014 9.71299 8.21287C10.006 7.65623 10.17 7.02537 9.82041 6.4785C9.67393 6.24607 9.00791 5.2324 8.33604 4.21482C7.66221 3.19725 7.02354 2.2324 6.85752 2.00193V1.99998C6.64073 1.70115 6.30283 1.52537 5.92002 1.49412ZM5.82823 2.5156C5.96494 2.53318 6.04698 2.58787 6.04698 2.58787C6.12705 2.6992 6.82823 3.74998 7.5001 4.7656C8.17198 5.78318 8.85752 6.82615 8.97666 7.0156C8.99619 7.0449 9.02354 7.37693 8.82823 7.74607V7.74803C8.60752 8.16795 7.57823 9.96678 7.57823 9.96678L7.43565 10.2187L7.58213 10.4687C7.58213 10.4687 8.34971 11.7637 10.7911 14.2051C13.2345 16.6465 14.5294 17.416 14.5294 17.416L14.7794 17.5625L15.0314 17.4199C15.0314 17.4199 16.8263 16.3926 17.2501 16.1699C17.6192 15.9765 17.9513 16.0019 17.9903 16.0254C18.336 16.2383 22.1778 18.791 22.4142 18.957C22.422 18.9629 22.631 19.2793 22.3263 19.7129H22.3243C22.1407 19.9765 21.5392 20.7402 20.9122 21.3926C20.5978 21.7187 20.2755 22.0234 20.0021 22.2285C19.7286 22.4336 19.4845 22.498 19.5235 22.5C19.0978 22.4863 18.1583 22.4765 16.4337 21.666C14.7091 20.8574 12.2481 19.2383 9.00401 15.9922C5.76182 12.75 4.14268 10.289 3.33213 8.56248C2.52354 6.83787 2.51377 5.89842 2.5001 5.47459C2.50205 5.51365 2.56651 5.26756 2.77158 4.99412C2.97666 4.72068 3.2794 4.39646 3.60557 4.08201C4.25987 3.45506 5.02158 2.8535 5.28526 2.6699V2.67185C5.50205 2.51951 5.69151 2.49998 5.82823 2.5156Z" fill="black"/>
</svg>
