<svg width="81" height="26" viewBox="0 0 81 26" fill="none" xmlns="http://www.w3.org/2000/svg">
<g clip-path="url(#clip0_48:705)">
<path d="M34.806 25.463H28.2993L32.369 0.54187H38.8753L34.806 25.463Z" fill="#00579F"/>
<path d="M58.3932 1.15108C57.1098 0.646835 55.0742 0.0900879 52.5572 0.0900879C46.1317 0.0900879 41.6069 3.48342 41.5791 8.33487C41.5258 11.9143 44.8188 13.9023 47.2817 15.0958C49.799 16.3154 50.6547 17.1114 50.6547 18.1985C50.6291 19.868 48.6206 20.6376 46.7472 20.6376C44.1495 20.6376 42.7576 20.2408 40.6423 19.3119L39.7855 18.9138L38.875 24.508C40.4011 25.1966 43.2126 25.8076 46.1317 25.8343C52.9589 25.8343 57.4037 22.4935 57.4563 17.3235C57.4823 14.4866 55.7435 12.3128 51.9947 10.5365C49.7189 9.39622 48.3253 8.62734 48.3253 7.46064C48.3519 6.4 49.504 5.31364 52.073 5.31364C54.1882 5.26043 55.7424 5.76397 56.9198 6.26786L57.5083 6.53249L58.3932 1.15108Z" fill="#00579F"/>
<path d="M67.0415 16.6343C67.5773 15.2026 69.6392 9.6616 69.6392 9.6616C69.6122 9.7148 70.174 8.20348 70.4953 7.27569L70.95 9.42304C70.95 9.42304 72.1822 15.3883 72.4498 16.6343C71.4329 16.6343 68.3267 16.6343 67.0415 16.6343ZM75.0731 0.54187H70.0402C68.4882 0.54187 67.309 0.992201 66.6394 2.60959L56.9746 25.4626H63.8018C63.8018 25.4626 64.9258 22.3868 65.1674 21.7243C65.9164 21.7243 72.5579 21.7243 73.5214 21.7243C73.7082 22.5993 74.2978 25.4626 74.2978 25.4626H80.3223L75.0731 0.54187Z" fill="#00579F"/>
<path d="M22.8651 0.54187L16.493 17.5357L15.7967 14.0891C14.6186 10.1123 10.9239 5.7915 6.80078 3.64309L12.6374 25.4366H19.518L29.7454 0.54187H22.8651Z" fill="#00579F"/>
<path d="M10.5757 0.54187H0.107098L0 1.04541C8.16613 3.11348 13.5744 8.09847 15.7964 14.0902L13.5207 2.63672C13.146 1.04506 11.9946 0.594373 10.5757 0.54187Z" fill="#FAA61A"/>
</g>
<defs>
<clipPath id="clip0_48:705">
<rect width="80.322" height="25.7442" fill="white" transform="translate(0 0.0900879)"/>
</clipPath>
</defs>
</svg>
