<svg width="34" height="26" viewBox="0 0 34 26" fill="none" xmlns="http://www.w3.org/2000/svg">
<g clip-path="url(#clip0_48:712)">
<path d="M6.28446 25.7768V24.0681C6.28446 23.4131 5.88228 22.9859 5.19282 22.9859C4.84809 22.9859 4.47464 23.0998 4.21609 23.47C4.015 23.1568 3.72772 22.9859 3.29681 22.9859C3.00953 22.9859 2.72226 23.0713 2.49244 23.3846V23.0429H1.88916V25.7768H2.49244V24.2674C2.49244 23.7833 2.75098 23.5555 3.15317 23.5555C3.55535 23.5555 3.75645 23.8118 3.75645 24.2674V25.7768H4.35973V24.2674C4.35973 23.7833 4.647 23.5555 5.02045 23.5555C5.42264 23.5555 5.62373 23.8118 5.62373 24.2674V25.7768H6.28446ZM15.2187 23.0429H14.242V22.217H13.6387V23.0429H13.0929V23.5839H13.6387V24.837C13.6387 25.4635 13.8972 25.8337 14.5867 25.8337C14.8453 25.8337 15.1325 25.7483 15.3336 25.6344L15.1613 25.1218C14.9889 25.2357 14.7878 25.2641 14.6442 25.2641C14.3569 25.2641 14.242 25.0933 14.242 24.8085V23.5839H15.2187V23.0429ZM20.3322 22.9859C19.9875 22.9859 19.7577 23.1568 19.614 23.3846V23.0429H19.0107V25.7768H19.614V24.2389C19.614 23.7833 19.8151 23.527 20.1886 23.527C20.3035 23.527 20.4471 23.5555 20.562 23.5839L20.7344 23.0144C20.6195 22.9859 20.4471 22.9859 20.3322 22.9859ZM12.6045 23.2707C12.3172 23.0713 11.9151 22.9859 11.4841 22.9859C10.7947 22.9859 10.335 23.3276 10.335 23.8687C10.335 24.3244 10.6798 24.5807 11.283 24.6661L11.5703 24.6946C11.8863 24.7515 12.0587 24.837 12.0587 24.9794C12.0587 25.1787 11.8289 25.3211 11.4267 25.3211C11.0245 25.3211 10.7085 25.1787 10.5074 25.0363L10.2201 25.492C10.5361 25.7198 10.967 25.8337 11.398 25.8337C12.2023 25.8337 12.662 25.4635 12.662 24.9509C12.662 24.4668 12.2885 24.2105 11.714 24.125L11.4267 24.0966C11.1681 24.0681 10.967 24.0111 10.967 23.8402C10.967 23.6409 11.1681 23.527 11.4841 23.527C11.8289 23.527 12.1736 23.6694 12.346 23.7548L12.6045 23.2707ZM28.6344 22.9859C28.2897 22.9859 28.0599 23.1568 27.9163 23.3846V23.0429H27.313V25.7768H27.9163V24.2389C27.9163 23.7833 28.1174 23.527 28.4908 23.527C28.6057 23.527 28.7494 23.5555 28.8643 23.5839L29.0366 23.0144C28.9217 22.9859 28.7494 22.9859 28.6344 22.9859ZM20.9355 24.4098C20.9355 25.2357 21.51 25.8337 22.4006 25.8337C22.8028 25.8337 23.09 25.7483 23.3773 25.5205L23.09 25.0363C22.8602 25.2072 22.6304 25.2926 22.3719 25.2926C21.8835 25.2926 21.5388 24.9509 21.5388 24.4098C21.5388 23.8972 21.8835 23.5555 22.3719 23.527C22.6304 23.527 22.8602 23.6124 23.09 23.7833L23.3773 23.2992C23.09 23.0713 22.8028 22.9859 22.4006 22.9859C21.51 22.9859 20.9355 23.5839 20.9355 24.4098ZM26.5086 24.4098V23.0429H25.9053V23.3846C25.7042 23.1283 25.417 22.9859 25.0435 22.9859C24.2679 22.9859 23.6646 23.5839 23.6646 24.4098C23.6646 25.2357 24.2679 25.8337 25.0435 25.8337C25.4457 25.8337 25.733 25.6913 25.9053 25.435V25.7768H26.5086V24.4098ZM24.2966 24.4098C24.2966 23.9257 24.6126 23.527 25.1297 23.527C25.6181 23.527 25.9628 23.8972 25.9628 24.4098C25.9628 24.8939 25.6181 25.2926 25.1297 25.2926C24.6126 25.2642 24.2966 24.8939 24.2966 24.4098ZM17.086 22.9859C16.2816 22.9859 15.7071 23.5555 15.7071 24.4098C15.7071 25.2641 16.2816 25.8337 17.1147 25.8337C17.5169 25.8337 17.9191 25.7198 18.2351 25.4635L17.9478 25.0363C17.718 25.2072 17.4307 25.3211 17.1435 25.3211C16.77 25.3211 16.3965 25.1502 16.3104 24.6661H18.35C18.35 24.5807 18.35 24.5237 18.35 24.4383C18.3787 23.5555 17.8616 22.9859 17.086 22.9859ZM17.086 23.4985C17.4595 23.4985 17.718 23.7263 17.7755 24.1535H16.3391C16.3965 23.7833 16.6551 23.4985 17.086 23.4985ZM32.053 24.4098V21.9607H31.4497V23.3846C31.2486 23.1283 30.9614 22.9859 30.5879 22.9859C29.8123 22.9859 29.209 23.5839 29.209 24.4098C29.209 25.2357 29.8123 25.8337 30.5879 25.8337C30.9901 25.8337 31.2774 25.6913 31.4497 25.435V25.7768H32.053V24.4098ZM29.841 24.4098C29.841 23.9257 30.157 23.527 30.6741 23.527C31.1625 23.527 31.5072 23.8972 31.5072 24.4098C31.5072 24.8939 31.1625 25.2926 30.6741 25.2926C30.157 25.2642 29.841 24.8939 29.841 24.4098ZM9.67431 24.4098V23.0429H9.07103V23.3846C8.86994 23.1283 8.58266 22.9859 8.20921 22.9859C7.43356 22.9859 6.83028 23.5839 6.83028 24.4098C6.83028 25.2357 7.43356 25.8337 8.20921 25.8337C8.61139 25.8337 8.89867 25.6913 9.07103 25.435V25.7768H9.67431V24.4098ZM7.43356 24.4098C7.43356 23.9257 7.74956 23.527 8.26666 23.527C8.75502 23.527 9.09976 23.8972 9.09976 24.4098C9.09976 24.8939 8.75502 25.2926 8.26666 25.2926C7.74956 25.2642 7.43356 24.8939 7.43356 24.4098Z" fill="black"/>
<path d="M21.4525 2.2821H12.4033V18.4007H21.4525V2.2821Z" fill="#FF5F00"/>
<path d="M12.9781 10.3415C12.9781 7.0665 14.5293 4.16173 16.9137 2.28218C15.1614 0.915225 12.9493 0.0893555 10.5362 0.0893555C4.81946 0.0893555 0.194336 4.67434 0.194336 10.3415C0.194336 16.0086 4.81946 20.5936 10.5362 20.5936C12.9493 20.5936 15.1614 19.7678 16.9137 18.4008C14.5293 16.5497 12.9781 13.6165 12.9781 10.3415Z" fill="#EB001B"/>
<path d="M33.6618 10.3415C33.6618 16.0086 29.0366 20.5936 23.3199 20.5936C20.9068 20.5936 18.6948 19.7678 16.9424 18.4008C19.3555 16.5213 20.878 13.6165 20.878 10.3415C20.878 7.0665 19.3268 4.16173 16.9424 2.28218C18.6948 0.915225 20.9068 0.0893555 23.3199 0.0893555C29.0366 0.0893555 33.6618 4.70282 33.6618 10.3415Z" fill="#F79E1B"/>
</g>
<defs>
<clipPath id="clip0_48:712">
<rect width="33.4675" height="25.7442" fill="white" transform="translate(0.194336 0.0893555)"/>
</clipPath>
</defs>
</svg>
