<svg width="96" height="26" viewBox="0 0 96 26" fill="none" xmlns="http://www.w3.org/2000/svg">
<path fill-rule="evenodd" clip-rule="evenodd" d="M9.29498 0.00440987C10.1414 -0.000653524 12.6568 -0.227205 13.7223 3.36879C14.44 5.79109 15.5833 9.75892 17.1521 15.2723H17.791C19.4735 9.45971 20.6292 5.49187 21.2583 3.36879C22.3349 -0.264663 25.0263 0.00448107 26.1029 0.00448107L34.409 0.00449143V25.8423H25.9432V10.6156H25.3755L20.6563 25.8423H14.2869L9.56762 10.6044H8.99993V25.8423H0.53418V0.00449143L9.29498 0.00440987ZM46.5656 0.00449143V15.2425H47.241L52.9815 2.71239C54.0958 0.218866 56.4708 0.00449143 56.4708 0.00449143H64.6631V25.8423H56.0206V10.6044H55.3452L49.7173 23.1344C48.6029 25.6167 46.1154 25.8423 46.1154 25.8423H37.923V0.00449143H46.5656ZM94.5357 12.2828C93.3301 15.699 89.5442 18.1457 85.3527 18.1457H76.2893V25.8423H68.0707V12.2828H94.5357Z" fill="#0F754E"/>
<path fill-rule="evenodd" clip-rule="evenodd" d="M85.749 0.00390625H67.6396C68.0706 5.75629 73.0244 10.6807 78.1527 10.6807H95.1066C96.085 5.8998 92.7169 0.00390625 85.749 0.00390625Z" fill="url(#paint0_linear_48:721)"/>
<defs>
<linearGradient id="paint0_linear_48:721" x1="95.2729" y1="6.72007" x2="67.6396" y2="6.72007" gradientUnits="userSpaceOnUse">
<stop stop-color="#1F5CD7"/>
<stop offset="1" stop-color="#02AEFF"/>
</linearGradient>
</defs>
</svg>
